<?xml version="1.0" encoding="UTF-8"?>
<svg height="16px" viewBox="0 0 16 16" width="16px" xmlns="http://www.w3.org/2000/svg" xmlns:xlink="http://www.w3.org/1999/xlink">
    <filter id="a" height="100%" width="100%" x="0%" y="0%">
        <feColorMatrix in="SourceGraphic" type="matrix" values="0 0 0 0 1 0 0 0 0 1 0 0 0 0 1 0 0 0 1 0"/>
    </filter>
    <mask id="b">
        <g filter="url(#a)">
            <rect fill-opacity="0.2" height="16" width="16"/>
        </g>
    </mask>
    <clipPath id="c">
        <rect height="152" width="192"/>
    </clipPath>
    <mask id="d">
        <g filter="url(#a)">
            <rect fill-opacity="0.1" height="16" width="16"/>
        </g>
    </mask>
    <clipPath id="e">
        <rect height="152" width="192"/>
    </clipPath>
    <path d="m 8 0 c -4.402344 0 -8 3.597656 -8 8 s 3.597656 8 8 8 s 8 -3.597656 8 -8 s -3.597656 -8 -8 -8 z m 0 2.726562 c 2.929688 0 5.273438 2.34375 5.273438 5.273438 s -2.34375 5.273438 -5.273438 5.273438 s -5.273438 -2.34375 -5.273438 -5.273438 s 2.34375 -5.273438 5.273438 -5.273438 z m 0 0"/>
    <g clip-path="url(#c)" mask="url(#b)" transform="matrix(1 0 0 1 -168 -16)">
        <path d="m 75.285156 74.988281 c -1.660156 -1.085937 -3.75 -1.28125 -5.582031 -0.523437 l -14.222656 -15.800782 c -0.402344 -0.460937 -0.992188 -0.710937 -1.601563 -0.683593 c -1.703125 0.082031 -2.53125 2.113281 -1.375 3.363281 l 14.21875 15.800781 c -0.890625 1.636719 -0.96875 3.597657 -0.210937 5.304688 c 0.503906 1.125 1.34375 2.066406 2.40625 2.699219 l 1.863281 0.726562 c 1.230469 0.253906 2.507812 0.117188 3.65625 -0.390625 c 3.023438 -1.351563 4.382812 -4.898437 3.035156 -7.925781 c -0.757812 -0.335938 -2.1875 -2.570313 -2.1875 -2.570313 z m 0 0" fill-rule="evenodd"/>
    </g>
    <g clip-path="url(#e)" mask="url(#d)" transform="matrix(1 0 0 1 -168 -16)">
        <path d="m 72 24 c -29.824219 0 -54 24.175781 -54 54 c 0.007812 0.390625 0.023438 0.78125 0.042969 1.171875 c 0.453125 -29.484375 24.472656 -53.152344 53.957031 -53.171875 c 29.355469 0.015625 53.320312 23.480469 53.957031 52.828125 c 0.015625 -0.277344 0.03125 -0.550781 0.042969 -0.828125 c 0 -29.824219 -24.175781 -54 -54 -54 z m 0 0"/>
    </g>
    <path d="m 6.292969 6.414062 l 2.464843 2.328126 z m 0 0" fill="none" stroke="#000000" stroke-linecap="round" stroke-linejoin="round" stroke-width="3"/>
</svg>
