<?xml version="1.0" encoding="UTF-8"?>
<svg height="16px" viewBox="0 0 16 16" width="16px" xmlns="http://www.w3.org/2000/svg" xmlns:xlink="http://www.w3.org/1999/xlink">
    <filter id="a" height="100%" width="100%" x="0%" y="0%">
        <feColorMatrix in="SourceGraphic" type="matrix" values="0 0 0 0 1 0 0 0 0 1 0 0 0 0 1 0 0 0 1 0"/>
    </filter>
    <mask id="b">
        <g filter="url(#a)">
            <rect fill-opacity="0.05" height="16" width="16"/>
        </g>
    </mask>
    <radialGradient id="c" cx="63.999996" cy="194.190475" gradientTransform="matrix(-3.840909 -0.00000125 -0.00000025 1.390909 305.568169 -152.634521)" gradientUnits="userSpaceOnUse" r="44">
        <stop offset="0" stop-color="#ffffff"/>
        <stop offset="1" stop-color="#ffffff" stop-opacity="0.094118"/>
    </radialGradient>
    <clipPath id="d">
        <rect height="152" width="192"/>
    </clipPath>
    <g clip-path="url(#d)" mask="url(#b)" transform="matrix(1 0 0 1 -168 -16)">
        <path d="m 24 122 h 78 v -68 h -78 z m 0 0" fill="url(#c)"/>
    </g>
    <g fill="#241f31">
        <path d="m 1.515625 0.894531 c -0.078125 -0.03125 -0.164063 -0.035156 -0.246094 -0.015625 c -0.078125 0.023438 -0.148437 0.070313 -0.203125 0.132813 c -0.054687 0.0625 -0.089844 0.136719 -0.109375 0.21875 c -0.019531 0.078125 -0.023437 0.164062 -0.023437 0.246093 l -0.070313 2.363282 c -0.007812 0.183594 -0.011719 0.367187 0.027344 0.542968 c 0.035156 0.175782 0.113281 0.347657 0.234375 0.484376 c 0.121094 0.132812 0.28125 0.230468 0.457031 0.277343 s 0.363281 0.046875 0.539063 0 c 0.109375 -0.027343 0.214844 -0.074219 0.304687 -0.136719 c 0.09375 -0.066406 0.171875 -0.152343 0.222657 -0.253906 c 0.050781 -0.101562 0.074218 -0.214844 0.074218 -0.328125 s -0.023437 -0.226562 -0.046875 -0.335937 l -0.160156 -0.722656 c 0.121094 -0.222657 0.3125 -0.40625 0.542969 -0.515626 c 0.226562 -0.113281 0.492187 -0.148437 0.742187 -0.101562 c 0.289063 0.054688 0.546875 0.207031 0.785157 0.382812 c 0.234374 0.171876 0.457031 0.367188 0.707031 0.519532 c 0.34375 0.207031 0.742187 0.328125 1.144531 0.34375 l -2.457031 3.863281 c -0.28125 0.441406 -0.554688 0.890625 -0.71875 1.386719 c -0.164063 0.492187 -0.222657 1.027344 -0.132813 1.542968 c 0.039063 0.210938 0.101563 0.421876 0.226563 0.597657 c 0.128906 0.175781 0.316406 0.304687 0.53125 0.335937 c 0.105469 0.019532 0.214843 0.007813 0.316406 -0.019531 c 0.105469 -0.03125 0.199219 -0.085937 0.28125 -0.15625 c 0.164063 -0.136719 0.265625 -0.335937 0.359375 -0.527344 l 4.066406 -8.507812 c 0.027344 -0.058594 0.054688 -0.117188 0.074219 -0.183594 c 0.015625 -0.0625 0.019531 -0.128906 0.011719 -0.191406 c -0.011719 -0.066407 -0.039063 -0.128907 -0.078125 -0.179688 c -0.039063 -0.050781 -0.089844 -0.09375 -0.148438 -0.125 c -0.105469 -0.054687 -0.230469 -0.0625 -0.339843 -0.03125 c -0.113282 0.035157 -0.210938 0.109375 -0.269532 0.210938 l -0.492187 0.640625 c -0.070313 0.089844 -0.167969 0.160156 -0.273438 0.195312 c -0.105469 0.039063 -0.222656 0.042969 -0.335937 0.019532 c -0.105469 -0.027344 -0.199219 -0.078126 -0.285156 -0.144532 c -0.082032 -0.070312 -0.152344 -0.152344 -0.214844 -0.242187 c -0.125 -0.175781 -0.210938 -0.375 -0.324219 -0.558594 c -0.214844 -0.34375 -0.53125 -0.632813 -0.894531 -0.816406 c -0.367188 -0.179688 -0.785156 -0.261719 -1.191406 -0.226563 c -0.410157 0.035156 -0.804688 0.183594 -1.136719 0.429688 c -0.328125 0.242187 -0.589844 0.578125 -0.742188 0.957031 l -0.175781 -0.789063 c -0.015625 -0.074218 -0.03125 -0.148437 -0.058594 -0.21875 c -0.027344 -0.070312 -0.066406 -0.136718 -0.117187 -0.195312 c -0.050781 -0.054688 -0.113281 -0.101562 -0.183594 -0.132812 c -0.070313 -0.027344 -0.144531 -0.039063 -0.222656 -0.035157 z m 0 0"/>
        <path d="m 10.5 5.980469 c -1.242188 0 -2.25 1.007812 -2.25 2.25 c 0 0.402343 0.113281 0.800781 0.320312 1.148437 c -0.105468 -0.015625 -0.214843 -0.023437 -0.320312 -0.023437 c -1.242188 0 -2.25 1.007812 -2.25 2.25 c 0 1.242187 1.007812 2.25 2.25 2.25 c 0.507812 -0.003907 1.003906 -0.175781 1.398438 -0.496094 l -0.273438 1.621094 h 2.25 l -0.273438 -1.621094 c 0.394532 0.320313 0.890626 0.492187 1.398438 0.496094 c 1.242188 0 2.25 -1.007813 2.25 -2.25 c 0 -1.242188 -1.007812 -2.25 -2.25 -2.25 c -0.105469 0 -0.214844 0.007812 -0.320312 0.023437 c 0.207031 -0.347656 0.320312 -0.746094 0.320312 -1.148437 c 0 -1.242188 -1.007812 -2.25 -2.25 -2.25 z m 0 0"/>
    </g>
</svg>
