<?xml version="1.0" encoding="UTF-8"?>
<svg height="16px" viewBox="0 0 16 16" width="16px" xmlns="http://www.w3.org/2000/svg">
    <path d="m 8 0 c -4.402344 0 -8 3.597656 -8 8 s 3.597656 8 8 8 s 8 -3.597656 8 -8 s -3.597656 -8 -8 -8 z m 0 2.726562 c 2.929688 0 5.273438 2.34375 5.273438 5.273438 s -2.34375 5.273438 -5.273438 5.273438 s -5.273438 -2.34375 -5.273438 -5.273438 s 2.34375 -5.273438 5.273438 -5.273438 z m 0 0"/>
    <path d="m 8 10.5625 c -3.984375 0.027344 -3.984375 0.027344 -2.019531 -3.433594 c 1.96875 -3.464844 1.96875 -3.464844 3.984375 -0.03125 c 2.019531 3.433594 2.019531 3.433594 -1.964844 3.464844 z m 0 0"/>
</svg>
