<svg xmlns="http://www.w3.org/2000/svg" width="16" height="16"><filter id="a" width="100%" height="100%" x="0%" y="0%"><feColorMatrix in="SourceGraphic" values="0 0 0 0 1 0 0 0 0 1 0 0 0 0 1 0 0 0 1 0"/></filter><mask id="c"><g filter="url(#a)"><path fill-opacity=".2" d="M0 0h16v16H0z"/></g></mask><clipPath id="b"><path d="M0 0h192v152H0z"/></clipPath><mask id="e"><g filter="url(#a)"><path fill-opacity=".1" d="M0 0h16v16H0z"/></g></mask><clipPath id="d"><path d="M0 0h192v152H0z"/></clipPath><path d="M8 0C3.598 0 0 3.598 0 8s3.598 8 8 8 8-3.598 8-8-3.598-8-8-8zm0 2.727c2.93 0 5.273 2.343 5.273 5.273S10.93 13.273 8 13.273 2.727 10.93 2.727 8 5.07 2.727 8 2.727zm0 0"/><g clip-path="url(#b)" mask="url(#c)" transform="translate(-168 -16)"><path fill-rule="evenodd" d="M75.285 74.988a6.005 6.005 0 0 0-5.582-.523l-14.223-15.8a2.005 2.005 0 0 0-1.601-.685c-1.703.083-2.531 2.114-1.375 3.364l14.219 15.8a6.003 6.003 0 0 0-.211 5.305 5.994 5.994 0 0 0 2.406 2.7l1.863.726a6.026 6.026 0 0 0 3.656-.39 6.007 6.007 0 0 0 3.036-7.926c-.758-.336-2.188-2.57-2.188-2.57zm0 0"/></g><g clip-path="url(#d)" mask="url(#e)" transform="translate(-168 -16)"><path d="M72 24c-29.824 0-54 24.176-54 54 .008.39.023.781.043 1.172C18.496 49.688 42.516 26.02 72 26c29.355.016 53.32 23.48 53.957 52.828.016-.277.031-.55.043-.828 0-29.824-24.176-54-54-54zm0 0"/></g><path fill="none" stroke="#000" stroke-linecap="round" stroke-linejoin="round" stroke-width="3" d="m6.293 6.414 2.465 2.328zm0 0"/></svg>