<?xml version="1.0" encoding="UTF-8"?>
<svg height="128px" viewBox="0 0 128 128" width="128px" xmlns="http://www.w3.org/2000/svg" xmlns:xlink="http://www.w3.org/1999/xlink">
    <defs>
        <linearGradient id="a" gradientUnits="userSpaceOnUse" x1="108" x2="108" y1="88" y2="104">
            <stop offset="0" stop-color="#c0bfbc"/>
            <stop offset="0.151515" stop-color="#f6f5f4"/>
            <stop offset="0.375" stop-color="#f6f5f4"/>
            <stop offset="0.81572" stop-color="#deddd9"/>
            <stop offset="1" stop-color="#f6f5f4"/>
        </linearGradient>
        <linearGradient id="b" gradientUnits="userSpaceOnUse" x1="8" x2="120" y1="106.00003075" y2="106.00003075">
            <stop offset="0" stop-color="#d5d3cf"/>
            <stop offset="0.0357143" stop-color="#e4e1de"/>
            <stop offset="0.0714286" stop-color="#d5d3cf"/>
            <stop offset="0.928571" stop-color="#d5d3cf"/>
            <stop offset="0.964286" stop-color="#e4e1de"/>
            <stop offset="1" stop-color="#d5d3cf"/>
        </linearGradient>
        <filter id="c" height="100%" width="100%" x="0%" y="0%">
            <feColorMatrix in="SourceGraphic" type="matrix" values="0 0 0 0 1 0 0 0 0 1 0 0 0 0 1 0 0 0 1 0"/>
        </filter>
        <mask id="d">
            <g filter="url(#c)">
                <rect fill-opacity="0.05" height="128" width="128"/>
            </g>
        </mask>
        <linearGradient id="e" gradientUnits="userSpaceOnUse" x1="84" x2="84" y1="38" y2="104">
            <stop offset="0" stop-color="#deddda"/>
            <stop offset="0.151515" stop-color="#ffffff"/>
            <stop offset="0.68002" stop-color="#f9f9f9"/>
            <stop offset="1" stop-color="#c0bfbc"/>
        </linearGradient>
        <clipPath id="f">
            <path d="m 47 36 h 17 v 12 h -17 z m 0 0"/>
        </clipPath>
        <clipPath id="g">
            <path d="m 17.644531 36 h 76 c 1.105469 0 2 0.894531 2 2 v 64 c 0 1.105469 -0.894531 2 -2 2 h -76 c -1.101562 0 -2 -0.894531 -2 -2 v -64 c 0 -1.105469 0.898438 -2 2 -2 z m 0 0"/>
        </clipPath>
        <clipPath id="h">
            <path d="m 20 36 h 16 v 11 h -16 z m 0 0"/>
        </clipPath>
        <clipPath id="i">
            <path d="m 17.644531 36 h 76 c 1.105469 0 2 0.894531 2 2 v 64 c 0 1.105469 -0.894531 2 -2 2 h -76 c -1.101562 0 -2 -0.894531 -2 -2 v -64 c 0 -1.105469 0.898438 -2 2 -2 z m 0 0"/>
        </clipPath>
        <clipPath id="j">
            <path d="m 19 95 h 18 v 9 h -18 z m 0 0"/>
        </clipPath>
        <clipPath id="k">
            <path d="m 17.644531 36 h 76 c 1.105469 0 2 0.894531 2 2 v 64 c 0 1.105469 -0.894531 2 -2 2 h -76 c -1.101562 0 -2 -0.894531 -2 -2 v -64 c 0 -1.105469 0.898438 -2 2 -2 z m 0 0"/>
        </clipPath>
        <clipPath id="l">
            <path d="m 76 95 h 16 v 9 h -16 z m 0 0"/>
        </clipPath>
        <clipPath id="m">
            <path d="m 17.644531 36 h 76 c 1.105469 0 2 0.894531 2 2 v 64 c 0 1.105469 -0.894531 2 -2 2 h -76 c -1.101562 0 -2 -0.894531 -2 -2 v -64 c 0 -1.105469 0.898438 -2 2 -2 z m 0 0"/>
        </clipPath>
        <clipPath id="n">
            <path d="m 78 62 h 13 v 18 h -13 z m 0 0"/>
        </clipPath>
        <clipPath id="o">
            <path d="m 17.644531 36 h 76 c 1.105469 0 2 0.894531 2 2 v 64 c 0 1.105469 -0.894531 2 -2 2 h -76 c -1.101562 0 -2 -0.894531 -2 -2 v -64 c 0 -1.105469 0.898438 -2 2 -2 z m 0 0"/>
        </clipPath>
        <clipPath id="p">
            <path d="m 50 97 h 14 v 7 h -14 z m 0 0"/>
        </clipPath>
        <clipPath id="q">
            <path d="m 17.644531 36 h 76 c 1.105469 0 2 0.894531 2 2 v 64 c 0 1.105469 -0.894531 2 -2 2 h -76 c -1.101562 0 -2 -0.894531 -2 -2 v -64 c 0 -1.105469 0.898438 -2 2 -2 z m 0 0"/>
        </clipPath>
        <clipPath id="r">
            <path d="m 20 62 h 16 v 16 h -16 z m 0 0"/>
        </clipPath>
        <clipPath id="s">
            <path d="m 17.644531 36 h 76 c 1.105469 0 2 0.894531 2 2 v 64 c 0 1.105469 -0.894531 2 -2 2 h -76 c -1.101562 0 -2 -0.894531 -2 -2 v -64 c 0 -1.105469 0.898438 -2 2 -2 z m 0 0"/>
        </clipPath>
        <clipPath id="t">
            <path d="m 76 36 h 17 v 11 h -17 z m 0 0"/>
        </clipPath>
        <clipPath id="u">
            <path d="m 17.644531 36 h 76 c 1.105469 0 2 0.894531 2 2 v 64 c 0 1.105469 -0.894531 2 -2 2 h -76 c -1.101562 0 -2 -0.894531 -2 -2 v -64 c 0 -1.105469 0.898438 -2 2 -2 z m 0 0"/>
        </clipPath>
        <clipPath id="v">
            <path d="m 50 60 h 14 v 16 h -14 z m 0 0"/>
        </clipPath>
        <clipPath id="w">
            <path d="m 17.644531 36 h 76 c 1.105469 0 2 0.894531 2 2 v 64 c 0 1.105469 -0.894531 2 -2 2 h -76 c -1.101562 0 -2 -0.894531 -2 -2 v -64 c 0 -1.105469 0.898438 -2 2 -2 z m 0 0"/>
        </clipPath>
        <clipPath id="x">
            <path d="m 48 70 h 8 v 8 h -8 z m 0 0"/>
        </clipPath>
        <clipPath id="y">
            <path d="m 17.644531 36 h 76 c 1.105469 0 2 0.894531 2 2 v 64 c 0 1.105469 -0.894531 2 -2 2 h -76 c -1.101562 0 -2 -0.894531 -2 -2 v -64 c 0 -1.105469 0.898438 -2 2 -2 z m 0 0"/>
        </clipPath>
        <clipPath id="z">
            <path d="m 56 70 h 8 v 8 h -8 z m 0 0"/>
        </clipPath>
        <clipPath id="A">
            <path d="m 17.644531 36 h 76 c 1.105469 0 2 0.894531 2 2 v 64 c 0 1.105469 -0.894531 2 -2 2 h -76 c -1.101562 0 -2 -0.894531 -2 -2 v -64 c 0 -1.105469 0.898438 -2 2 -2 z m 0 0"/>
        </clipPath>
        <clipPath id="B">
            <path d="m 50 71 h 4 v 2 h -4 z m 0 0"/>
        </clipPath>
        <clipPath id="C">
            <path d="m 17.644531 36 h 76 c 1.105469 0 2 0.894531 2 2 v 64 c 0 1.105469 -0.894531 2 -2 2 h -76 c -1.101562 0 -2 -0.894531 -2 -2 v -64 c 0 -1.105469 0.898438 -2 2 -2 z m 0 0"/>
        </clipPath>
        <clipPath id="D">
            <path d="m 58 71 h 4 v 2 h -4 z m 0 0"/>
        </clipPath>
        <clipPath id="E">
            <path d="m 17.644531 36 h 76 c 1.105469 0 2 0.894531 2 2 v 64 c 0 1.105469 -0.894531 2 -2 2 h -76 c -1.101562 0 -2 -0.894531 -2 -2 v -64 c 0 -1.105469 0.898438 -2 2 -2 z m 0 0"/>
        </clipPath>
        <clipPath id="F">
            <path d="m 59 61 h 7 v 9 h -7 z m 0 0"/>
        </clipPath>
        <clipPath id="G">
            <path d="m 17.644531 36 h 76 c 1.105469 0 2 0.894531 2 2 v 64 c 0 1.105469 -0.894531 2 -2 2 h -76 c -1.101562 0 -2 -0.894531 -2 -2 v -64 c 0 -1.105469 0.898438 -2 2 -2 z m 0 0"/>
        </clipPath>
        <radialGradient id="H" cx="118" cy="218" gradientTransform="matrix(0 1.25 -1.25 0 390.5 -104)" gradientUnits="userSpaceOnUse" r="8">
            <stop offset="0" stop-color="#ff7800"/>
            <stop offset="1" stop-color="#e01b24" stop-opacity="0.994802"/>
        </radialGradient>
        <mask id="I">
            <g filter="url(#c)">
                <rect fill-opacity="0.05" height="128" width="128"/>
            </g>
        </mask>
        <radialGradient id="J" cx="63.999996" cy="194.190475" gradientTransform="matrix(-3.840909 -0.00000125 -0.00000025 1.390909 305.568169 -152.634521)" gradientUnits="userSpaceOnUse" r="44">
            <stop offset="0" stop-color="#ffffff"/>
            <stop offset="1" stop-color="#ffffff" stop-opacity="0.094118"/>
        </radialGradient>
        <clipPath id="K">
            <rect height="152" width="192"/>
        </clipPath>
        <g id="L" clip-path="url(#K)">
            <path d="m 24 122 h 78 v -68 h -78 z m 0 0" fill="url(#J)"/>
        </g>
        <clipPath id="M">
            <path d="m 47 36 h 17 v 12 h -17 z m 0 0"/>
        </clipPath>
        <clipPath id="N">
            <path d="m 17.644531 36 h 76 c 1.105469 0 2 0.894531 2 2 v 64 c 0 1.105469 -0.894531 2 -2 2 h -76 c -1.101562 0 -2 -0.894531 -2 -2 v -64 c 0 -1.105469 0.898438 -2 2 -2 z m 0 0"/>
        </clipPath>
        <clipPath id="O">
            <path d="m 20 36 h 16 v 11 h -16 z m 0 0"/>
        </clipPath>
        <clipPath id="P">
            <path d="m 17.644531 36 h 76 c 1.105469 0 2 0.894531 2 2 v 64 c 0 1.105469 -0.894531 2 -2 2 h -76 c -1.101562 0 -2 -0.894531 -2 -2 v -64 c 0 -1.105469 0.898438 -2 2 -2 z m 0 0"/>
        </clipPath>
        <clipPath id="Q">
            <path d="m 19 95 h 18 v 9 h -18 z m 0 0"/>
        </clipPath>
        <clipPath id="R">
            <path d="m 17.644531 36 h 76 c 1.105469 0 2 0.894531 2 2 v 64 c 0 1.105469 -0.894531 2 -2 2 h -76 c -1.101562 0 -2 -0.894531 -2 -2 v -64 c 0 -1.105469 0.898438 -2 2 -2 z m 0 0"/>
        </clipPath>
        <clipPath id="S">
            <path d="m 76 95 h 16 v 9 h -16 z m 0 0"/>
        </clipPath>
        <clipPath id="T">
            <path d="m 17.644531 36 h 76 c 1.105469 0 2 0.894531 2 2 v 64 c 0 1.105469 -0.894531 2 -2 2 h -76 c -1.101562 0 -2 -0.894531 -2 -2 v -64 c 0 -1.105469 0.898438 -2 2 -2 z m 0 0"/>
        </clipPath>
        <clipPath id="U">
            <path d="m 78 62 h 13 v 18 h -13 z m 0 0"/>
        </clipPath>
        <clipPath id="V">
            <path d="m 17.644531 36 h 76 c 1.105469 0 2 0.894531 2 2 v 64 c 0 1.105469 -0.894531 2 -2 2 h -76 c -1.101562 0 -2 -0.894531 -2 -2 v -64 c 0 -1.105469 0.898438 -2 2 -2 z m 0 0"/>
        </clipPath>
        <clipPath id="W">
            <path d="m 50 97 h 14 v 7 h -14 z m 0 0"/>
        </clipPath>
        <clipPath id="X">
            <path d="m 17.644531 36 h 76 c 1.105469 0 2 0.894531 2 2 v 64 c 0 1.105469 -0.894531 2 -2 2 h -76 c -1.101562 0 -2 -0.894531 -2 -2 v -64 c 0 -1.105469 0.898438 -2 2 -2 z m 0 0"/>
        </clipPath>
        <clipPath id="Y">
            <path d="m 20 62 h 16 v 16 h -16 z m 0 0"/>
        </clipPath>
        <clipPath id="Z">
            <path d="m 17.644531 36 h 76 c 1.105469 0 2 0.894531 2 2 v 64 c 0 1.105469 -0.894531 2 -2 2 h -76 c -1.101562 0 -2 -0.894531 -2 -2 v -64 c 0 -1.105469 0.898438 -2 2 -2 z m 0 0"/>
        </clipPath>
        <clipPath id="aa">
            <path d="m 76 36 h 17 v 11 h -17 z m 0 0"/>
        </clipPath>
        <clipPath id="ab">
            <path d="m 17.644531 36 h 76 c 1.105469 0 2 0.894531 2 2 v 64 c 0 1.105469 -0.894531 2 -2 2 h -76 c -1.101562 0 -2 -0.894531 -2 -2 v -64 c 0 -1.105469 0.898438 -2 2 -2 z m 0 0"/>
        </clipPath>
        <clipPath id="ac">
            <path d="m 50 60 h 14 v 16 h -14 z m 0 0"/>
        </clipPath>
        <clipPath id="ad">
            <path d="m 17.644531 36 h 76 c 1.105469 0 2 0.894531 2 2 v 64 c 0 1.105469 -0.894531 2 -2 2 h -76 c -1.101562 0 -2 -0.894531 -2 -2 v -64 c 0 -1.105469 0.898438 -2 2 -2 z m 0 0"/>
        </clipPath>
        <clipPath id="ae">
            <path d="m 48 70 h 8 v 8 h -8 z m 0 0"/>
        </clipPath>
        <clipPath id="af">
            <path d="m 17.644531 36 h 76 c 1.105469 0 2 0.894531 2 2 v 64 c 0 1.105469 -0.894531 2 -2 2 h -76 c -1.101562 0 -2 -0.894531 -2 -2 v -64 c 0 -1.105469 0.898438 -2 2 -2 z m 0 0"/>
        </clipPath>
        <clipPath id="ag">
            <path d="m 56 70 h 8 v 8 h -8 z m 0 0"/>
        </clipPath>
        <clipPath id="ah">
            <path d="m 17.644531 36 h 76 c 1.105469 0 2 0.894531 2 2 v 64 c 0 1.105469 -0.894531 2 -2 2 h -76 c -1.101562 0 -2 -0.894531 -2 -2 v -64 c 0 -1.105469 0.898438 -2 2 -2 z m 0 0"/>
        </clipPath>
        <clipPath id="ai">
            <path d="m 50 71 h 4 v 2 h -4 z m 0 0"/>
        </clipPath>
        <clipPath id="aj">
            <path d="m 17.644531 36 h 76 c 1.105469 0 2 0.894531 2 2 v 64 c 0 1.105469 -0.894531 2 -2 2 h -76 c -1.101562 0 -2 -0.894531 -2 -2 v -64 c 0 -1.105469 0.898438 -2 2 -2 z m 0 0"/>
        </clipPath>
        <clipPath id="ak">
            <path d="m 58 71 h 4 v 2 h -4 z m 0 0"/>
        </clipPath>
        <clipPath id="al">
            <path d="m 17.644531 36 h 76 c 1.105469 0 2 0.894531 2 2 v 64 c 0 1.105469 -0.894531 2 -2 2 h -76 c -1.101562 0 -2 -0.894531 -2 -2 v -64 c 0 -1.105469 0.898438 -2 2 -2 z m 0 0"/>
        </clipPath>
        <clipPath id="am">
            <path d="m 59 61 h 7 v 9 h -7 z m 0 0"/>
        </clipPath>
        <clipPath id="an">
            <path d="m 17.644531 36 h 76 c 1.105469 0 2 0.894531 2 2 v 64 c 0 1.105469 -0.894531 2 -2 2 h -76 c -1.101562 0 -2 -0.894531 -2 -2 v -64 c 0 -1.105469 0.898438 -2 2 -2 z m 0 0"/>
        </clipPath>
        <clipPath id="ao">
            <rect height="128" width="128"/>
        </clipPath>
        <clipPath id="ap">
            <rect height="128" width="128"/>
        </clipPath>
        <mask id="aq">
            <g clip-path="url(#ap)" filter="url(#c)">
                <g clip-path="url(#ao)">
                    <path d="m 101.765625 89 h 8.46875 c 2.078125 0 3.765625 1.6875 3.765625 3.765625 v 8.46875 c 0 2.078125 -1.6875 3.765625 -3.765625 3.765625 h -8.46875 c -2.078125 0 -3.765625 -1.6875 -3.765625 -3.765625 v -8.46875 c 0 -2.078125 1.6875 -3.765625 3.765625 -3.765625 z m 0 0" fill="#c0bfbc"/>
                    <path d="m 101.179688 88 h 9.640624 c 1.753907 0 3.179688 1.425781 3.179688 3.179688 v 9.640624 c 0 1.753907 -1.425781 3.179688 -3.179688 3.179688 h -9.640624 c -1.753907 0 -3.179688 -1.425781 -3.179688 -3.179688 v -9.640624 c 0 -1.753907 1.425781 -3.179688 3.179688 -3.179688 z m 0 0" fill="url(#a)"/>
                    <path d="m 118 220 v 36 c 0 4 -2.898438 8 -8 8" fill="none" stroke="#c0bfbc" stroke-linecap="round" stroke-width="6" transform="matrix(1 0 0 1 0 -172)"/>
                    <path d="m 14.855469 28 h 82.289062 c 3.785157 0 6.855469 3.664062 6.855469 8.1875 v 71.625 c 0 4.523438 -3.070312 8.1875 -6.855469 8.1875 h -82.289062 c -3.785157 0 -6.855469 -3.664062 -6.855469 -8.1875 v -71.625 c 0 -4.523438 3.070312 -8.1875 6.855469 -8.1875 z m 0 0" fill="#f6f5f4"/>
                    <path d="m 15.824219 32 h 80.351562 c 2.109375 0 3.824219 1.789062 3.824219 4 v 68 c 0 2.210938 -1.714844 4 -3.824219 4 h -80.351562 c -2.109375 0 -3.824219 -1.789062 -3.824219 -4 v -68 c 0 -2.210938 1.714844 -4 3.824219 -4 z m 0 0" fill="#241f31"/>
                    <path d="m 8 106 v 4 c 0 4.433594 3.566406 8 8 8 h 79.945312 c 4.429688 0 8 -3.566406 8 -8 v -4 c 0 4.433594 -3.570312 8 -8 8 h -79.945312 c -4.433594 0 -8 -3.566406 -8 -8 z m 0 0" fill="url(#b)"/>
                    <use mask="url(#I)" transform="matrix(1 0 0 1 -8 -16)" xlink:href="#L"/>
                    <path d="m 18 36 h 20 c 1.105469 0 2 0.84375 2 1.890625 v 64.21875 c 0 1.046875 -0.894531 1.890625 -2 1.890625 h -20 c -1.105469 0 -2 -0.84375 -2 -1.890625 v -64.21875 c 0 -1.046875 0.894531 -1.890625 2 -1.890625 z m 0 0" fill="url(#e)"/>
                    <path d="m 46 36 h 20 c 1.105469 0 2 0.84375 2 1.890625 v 64.21875 c 0 1.046875 -0.894531 1.890625 -2 1.890625 h -20 c -1.105469 0 -2 -0.84375 -2 -1.890625 v -64.21875 c 0 -1.046875 0.894531 -1.890625 2 -1.890625 z m 0 0" fill="url(#e)"/>
                    <path d="m 74 36 h 20 c 1.105469 0 2 0.84375 2 1.890625 v 64.21875 c 0 1.046875 -0.894531 1.890625 -2 1.890625 h -20 c -1.105469 0 -2 -0.84375 -2 -1.890625 v -64.21875 c 0 -1.046875 0.894531 -1.890625 2 -1.890625 z m 0 0" fill="url(#e)"/>
                    <g clip-path="url(#M)">
                        <g clip-path="url(#N)">
                            <path d="m 60.632812 46.921875 c -0.941406 0.675781 -3.847656 -2.277344 -5.003906 -2.28125 c -1.160156 -0.007813 -4.089844 2.925781 -5.023437 2.242187 c -0.9375 -0.6875 0.976562 -4.363281 0.625 -5.464843 c -0.355469 -1.105469 -4.046875 -2.988281 -3.6875 -4.085938 c 0.363281 -1.101562 4.453125 -0.417969 5.390625 -1.097656 c 0.941406 -0.675781 1.589844 -4.769531 2.75 -4.765625 c 1.15625 0.003906 1.769531 4.105469 2.703125 4.789062 c 0.933593 0.683594 5.03125 0.035157 5.382812 1.140626 c 0.355469 1.101562 -3.355469 2.953124 -3.714843 4.050781 c -0.363282 1.101562 1.515624 4.796875 0.578124 5.472656 z m 0 0" fill="#ff7800"/>
                        </g>
                    </g>
                    <g clip-path="url(#O)">
                        <g clip-path="url(#P)">
                            <path d="m 31.789062 33.207031 c -0.925781 0 -1.757812 0.328125 -2.5 0.984375 c -0.628906 0.648438 -1.300781 1.667969 -1.300781 1.667969 v 0.003906 s -0.667969 -1.019531 -1.300781 -1.667969 c -0.738281 -0.65625 -1.574219 -0.984374 -2.5 -0.984374 c -1.429688 0 -2.578125 0.679687 -3.441406 2.039062 c -0.222656 0.503906 -0.332032 0.980469 -0.332032 1.421875 c 0 1.519531 0.714844 2.964844 2.140626 4.34375 l 5.433593 5.777344 v -0.003907 l 5.4375 -5.777343 c 1.425781 -1.378907 2.140625 -2.828125 2.140625 -4.34375 c 0 -0.445313 -0.113281 -0.917969 -0.332031 -1.421875 c -0.863281 -1.359375 -2.011719 -2.039063 -3.445313 -2.039063 z m 0 0" fill="#ed333b"/>
                        </g>
                    </g>
                    <g clip-path="url(#Q)">
                        <g clip-path="url(#R)">
                            <path d="m 32.984375 110.921875 c -0.9375 0.675781 -3.84375 -2.277344 -5.003906 -2.28125 c -1.15625 -0.007813 -4.089844 2.925781 -5.023438 2.242187 c -0.933593 -0.6875 0.976563 -4.363281 0.625 -5.464843 c -0.351562 -1.105469 -4.046875 -2.988281 -3.683593 -4.085938 c 0.359374 -1.101562 4.449218 -0.417969 5.390624 -1.097656 c 0.9375 -0.675781 1.589844 -4.769531 2.746094 -4.765625 s 1.773438 4.105469 2.707032 4.789062 c 0.933593 0.683594 5.027343 0.035157 5.382812 1.140626 c 0.351562 1.101562 -3.355469 2.953124 -3.71875 4.050781 c -0.363281 1.101562 1.519531 4.796875 0.578125 5.472656 z m 0 0" fill="#ff7800"/>
                        </g>
                    </g>
                    <g clip-path="url(#S)">
                        <g clip-path="url(#T)">
                            <path d="m 87.800781 95.207031 c -0.925781 0 -1.757812 0.328125 -2.5 0.984375 c -0.632812 0.648438 -1.300781 1.667969 -1.300781 1.667969 v 0.003906 s -0.667969 -1.019531 -1.300781 -1.667969 c -0.742188 -0.65625 -1.574219 -0.984374 -2.5 -0.984374 c -1.433594 0 -2.582031 0.679687 -3.445313 2.039062 c -0.21875 0.503906 -0.328125 0.980469 -0.328125 1.421875 c 0 1.519531 0.714844 2.964844 2.140625 4.34375 l 5.433594 5.777344 v -0.003907 l 5.433594 -5.777343 c 1.425781 -1.378907 2.140625 -2.828125 2.140625 -4.34375 c 0 -0.445313 -0.109375 -0.917969 -0.328125 -1.421875 c -0.863282 -1.359375 -2.011719 -2.039063 -3.445313 -2.039063 z m 0 0" fill="#ed333b"/>
                        </g>
                    </g>
                    <g clip-path="url(#U)">
                        <g clip-path="url(#V)">
                            <path d="m 79.25 62.496094 c -0.121094 -0.011719 -0.25 -0.003906 -0.367188 0.03125 c -0.117187 0.035156 -0.226562 0.097656 -0.3125 0.1875 c -0.089843 0.085937 -0.148437 0.199218 -0.179687 0.316406 c -0.035156 0.121094 -0.039063 0.246094 -0.042969 0.367188 l -0.109375 3.675781 c -0.011719 0.285156 -0.015625 0.566406 0.042969 0.84375 c 0.058594 0.273437 0.179688 0.539062 0.367188 0.75 c 0.183593 0.210937 0.4375 0.363281 0.707031 0.4375 c 0.273437 0.074219 0.5625 0.066406 0.835937 -0.003907 c 0.171875 -0.042968 0.335938 -0.113281 0.480469 -0.214843 c 0.140625 -0.101563 0.261719 -0.238281 0.339844 -0.394531 c 0.082031 -0.15625 0.117187 -0.332032 0.117187 -0.507813 s -0.035156 -0.351563 -0.074218 -0.523437 l -0.246094 -1.121094 c 0.1875 -0.347656 0.484375 -0.632813 0.839844 -0.804688 c 0.359374 -0.171875 0.769531 -0.226562 1.15625 -0.15625 c 0.449218 0.082032 0.851562 0.324219 1.21875 0.59375 c 0.367187 0.269532 0.710937 0.574219 1.101562 0.808594 c 0.535156 0.324219 1.152344 0.511719 1.78125 0.539062 l -3.820312 6 c -0.4375 0.6875 -0.863282 1.386719 -1.117188 2.15625 c -0.257812 0.769532 -0.347656 1.601563 -0.203125 2.398438 c 0.054687 0.328125 0.15625 0.660156 0.351563 0.929688 c 0.195312 0.269531 0.488281 0.476562 0.820312 0.527343 c 0.164062 0.023438 0.335938 0.011719 0.496094 -0.039062 c 0.160156 -0.046875 0.308594 -0.128907 0.433594 -0.238281 c 0.257812 -0.214844 0.414062 -0.519532 0.558593 -0.820313 l 6.320313 -13.226563 c 0.046875 -0.089843 0.089844 -0.183593 0.113281 -0.28125 c 0.027344 -0.097656 0.035156 -0.203124 0.019531 -0.300781 c -0.015625 -0.101562 -0.054687 -0.199219 -0.117187 -0.277343 c -0.0625 -0.082032 -0.140625 -0.148438 -0.230469 -0.195313 c -0.164062 -0.082031 -0.359375 -0.101563 -0.53125 -0.046875 c -0.175781 0.050781 -0.328125 0.171875 -0.417969 0.328125 l -0.765625 0.996094 c -0.109375 0.136719 -0.257812 0.242187 -0.425781 0.300781 c -0.164063 0.058594 -0.347656 0.070312 -0.519531 0.027344 c -0.164063 -0.035156 -0.3125 -0.117188 -0.445313 -0.222656 c -0.128906 -0.105469 -0.238281 -0.234376 -0.332031 -0.371094 c -0.191406 -0.277344 -0.328125 -0.585938 -0.503906 -0.867188 c -0.335938 -0.542968 -0.824219 -0.988281 -1.394532 -1.269531 c -0.570312 -0.285156 -1.21875 -0.410156 -1.851562 -0.355469 c -0.632812 0.054688 -1.25 0.285156 -1.761719 0.664063 c -0.511719 0.378906 -0.917969 0.898437 -1.15625 1.488281 l -0.273437 -1.226562 c -0.023438 -0.113282 -0.050782 -0.226563 -0.09375 -0.332032 c -0.046875 -0.109375 -0.109375 -0.207031 -0.1875 -0.292968 c -0.160156 -0.167969 -0.390625 -0.257813 -0.621094 -0.277344 z m 0 0" fill="#9141ac"/>
                        </g>
                    </g>
                    <g clip-path="url(#W)">
                        <g clip-path="url(#X)">
                            <path d="m 51.382812 97.441406 c -0.125 -0.011718 -0.25 -0.003906 -0.367187 0.03125 s -0.230469 0.097656 -0.316406 0.183594 c -0.085938 0.089844 -0.144531 0.203125 -0.179688 0.320312 c -0.03125 0.121094 -0.039062 0.246094 -0.039062 0.367188 l -0.113281 3.675781 c -0.007813 0.28125 -0.011719 0.566407 0.046874 0.84375 c 0.058594 0.273438 0.175782 0.539063 0.363282 0.75 c 0.1875 0.210938 0.4375 0.363281 0.710937 0.4375 c 0.269531 0.074219 0.5625 0.066407 0.835938 -0.003906 c 0.167969 -0.042969 0.335937 -0.113281 0.476562 -0.214844 c 0.144531 -0.101562 0.265625 -0.238281 0.34375 -0.394531 s 0.117188 -0.332031 0.117188 -0.507812 c 0 -0.175782 -0.035157 -0.351563 -0.074219 -0.523438 l -0.25 -1.121094 c 0.1875 -0.347656 0.488281 -0.632812 0.84375 -0.804687 s 0.765625 -0.226563 1.15625 -0.15625 c 0.449219 0.082031 0.851562 0.324219 1.21875 0.59375 s 0.710938 0.574219 1.097656 0.808593 c 0.539063 0.324219 1.15625 0.511719 1.785156 0.535157 l -3.820312 6.003906 c -0.4375 0.683594 -0.863281 1.386719 -1.121094 2.15625 c -0.253906 0.769531 -0.34375 1.601563 -0.203125 2.398437 c 0.058594 0.328126 0.160157 0.660157 0.355469 0.929688 c 0.191406 0.269531 0.488281 0.476562 0.820312 0.523438 c 0.164063 0.027343 0.335938 0.015624 0.492188 -0.035157 c 0.160156 -0.046875 0.308594 -0.128906 0.4375 -0.238281 c 0.253906 -0.214844 0.414062 -0.519531 0.558594 -0.820312 l 6.320312 -13.226563 c 0.042969 -0.089844 0.085938 -0.183594 0.113282 -0.28125 c 0.027343 -0.097656 0.035156 -0.203125 0.019531 -0.300781 c -0.015625 -0.101563 -0.058594 -0.199219 -0.117188 -0.277344 c -0.0625 -0.082031 -0.144531 -0.148438 -0.234375 -0.195312 c -0.160156 -0.082032 -0.355468 -0.101563 -0.53125 -0.046876 c -0.171875 0.050782 -0.324218 0.171876 -0.417968 0.328126 l -0.761719 0.996093 c -0.109375 0.136719 -0.257813 0.242188 -0.425781 0.300781 c -0.167969 0.058594 -0.347657 0.070313 -0.519532 0.027344 c -0.164062 -0.035156 -0.316406 -0.117187 -0.445312 -0.222656 s -0.238282 -0.234375 -0.335938 -0.371094 c -0.191406 -0.277344 -0.324218 -0.585937 -0.503906 -0.871094 c -0.335938 -0.539062 -0.824219 -0.984374 -1.390625 -1.269531 c -0.570313 -0.28125 -1.21875 -0.40625 -1.851563 -0.351562 c -0.632812 0.054687 -1.25 0.285156 -1.761718 0.664062 c -0.511719 0.378907 -0.917969 0.898438 -1.15625 1.488281 l -0.273438 -1.226562 c -0.027344 -0.113281 -0.050781 -0.226562 -0.097656 -0.332031 c -0.042969 -0.109375 -0.105469 -0.207031 -0.183594 -0.292969 c -0.164062 -0.167969 -0.390625 -0.257812 -0.621094 -0.277344 z m 0 0" fill="#9141ac"/>
                        </g>
                    </g>
                    <g clip-path="url(#Y)">
                        <g clip-path="url(#Z)">
                            <path d="m 28 62 c -2.210938 0 -4 1.789062 -4 4 c 0.003906 0.71875 0.199219 1.425781 0.566406 2.042969 c -0.1875 -0.027344 -0.375 -0.042969 -0.566406 -0.042969 c -2.210938 0 -4 1.789062 -4 4 s 1.789062 4 4 4 c 0.90625 -0.003906 1.78125 -0.3125 2.488281 -0.878906 l -0.488281 2.878906 h 4 l -0.488281 -2.878906 c 0.707031 0.566406 1.582031 0.875 2.488281 0.878906 c 2.210938 0 4 -1.789062 4 -4 s -1.789062 -4 -4 -4 c -0.191406 0 -0.378906 0.015625 -0.566406 0.039062 c 0.367187 -0.613281 0.5625 -1.320312 0.566406 -2.039062 c 0 -2.210938 -1.789062 -4 -4 -4 z m 0 0" fill="#3d3846"/>
                        </g>
                    </g>
                    <g clip-path="url(#aa)">
                        <g clip-path="url(#ab)">
                            <path d="m 84.488281 30.878906 c -2.210937 0 -4 1.789063 -4 4 c 0.003907 0.71875 0.199219 1.425782 0.566407 2.042969 c -0.1875 -0.027344 -0.375 -0.042969 -0.566407 -0.042969 c -2.210937 0 -4 1.789063 -4 4 c 0 2.210938 1.789063 4 4 4 c 0.90625 -0.003906 1.78125 -0.3125 2.488281 -0.878906 l -0.488281 2.878906 h 4 l -0.488281 -2.878906 c 0.707031 0.566406 1.582031 0.875 2.488281 0.878906 c 2.210938 0 4 -1.789062 4 -4 c 0 -2.210937 -1.789062 -4 -4 -4 c -0.191406 0 -0.378906 0.015625 -0.566406 0.039063 c 0.367187 -0.613281 0.5625 -1.320313 0.566406 -2.039063 c 0 -2.210937 -1.789062 -4 -4 -4 z m 0 0" fill="#3d3846"/>
                        </g>
                    </g>
                    <g clip-path="url(#ac)">
                        <g clip-path="url(#ad)">
                            <path d="m 52 246 c -0.6875 -6.722656 2.730469 -10.664062 10 -12 c -1.832031 1.957031 -2.75 4.988281 -2 10" fill="none" stroke="#26a269" stroke-linecap="square" stroke-linejoin="bevel" stroke-width="2" transform="matrix(1 0 0 1 0 -172)"/>
                        </g>
                    </g>
                    <g clip-path="url(#ae)">
                        <g clip-path="url(#af)">
                            <path d="m 56 74 c 0 2.210938 -1.789062 4 -4 4 s -4 -1.789062 -4 -4 s 1.789062 -4 4 -4 s 4 1.789062 4 4 z m 0 0" fill="#c01c28"/>
                        </g>
                    </g>
                    <g clip-path="url(#ag)">
                        <g clip-path="url(#ah)">
                            <path d="m 64 74 c 0 2.210938 -1.789062 4 -4 4 s -4 -1.789062 -4 -4 s 1.789062 -4 4 -4 s 4 1.789062 4 4 z m 0 0" fill="#c01c28"/>
                        </g>
                    </g>
                    <g clip-path="url(#ai)">
                        <g clip-path="url(#aj)">
                            <path d="m 54 72 c 0 0.550781 -0.894531 1 -2 1 s -2 -0.449219 -2 -1 s 0.894531 -1 2 -1 s 2 0.449219 2 1 z m 0 0" fill="#f19fa5"/>
                        </g>
                    </g>
                    <g clip-path="url(#ak)">
                        <g clip-path="url(#al)">
                            <path d="m 62 72 c 0 0.550781 -0.894531 1 -2 1 s -2 -0.449219 -2 -1 s 0.894531 -1 2 -1 s 2 0.449219 2 1 z m 0 0" fill="#f19fa5"/>
                        </g>
                    </g>
                    <g clip-path="url(#am)">
                        <g clip-path="url(#an)">
                            <path d="m 62 61 s -3.203125 3.917969 -2 6 c 2.308594 4 6 1 6 1 z m 0 0" fill="#33d17a"/>
                        </g>
                    </g>
                    <path d="m 12 61.570312 l 11.3125 11.3125 l -11.3125 11.316407 z m 0 0" fill-opacity="0.193559"/>
                    <path d="m 12 58.6875 l 11.3125 11.3125 l -11.3125 11.3125 z m 0 0" fill="#f6f5f4"/>
                    <path d="m 100.1875 61.570312 l -11.3125 11.3125 l 11.3125 11.316407 z m 0 0" fill-opacity="0.193559"/>
                    <path d="m 100.1875 58.6875 l -11.3125 11.3125 l 11.3125 11.3125 z m 0 0" fill="#f6f5f4"/>
                    <path d="m 117 226 v 31 c 0 2.964844 -3.074219 6.207031 -6 6" fill="none" stroke="#deddda" stroke-linecap="round" stroke-width="2" transform="matrix(1 0 0 1 0 -172)"/>
                    <path d="m 128 46 c 0 5.523438 -4.476562 10 -10 10 s -10 -4.476562 -10 -10 s 4.476562 -10 10 -10 s 10 4.476562 10 10 z m 0 0" fill="url(#H)"/>
                    <path d="m 122 42 c 0 1.839844 -1.789062 3.332031 -4 3.332031 s -4 -1.492187 -4 -3.332031 s 1.789062 -3.332031 4 -3.332031 s 4 1.492187 4 3.332031 z m 0 0" fill="#fde5e2" fill-opacity="0.994802"/>
                    <path d="m 18 36 c -1.109375 0 -2 0.84375 -2 1.886719 v 4 c 0 -1.042969 0.890625 -1.886719 2 -1.886719 h 76 c 1.109375 0 2 0.84375 2 1.886719 v -4 c 0 -1.042969 -0.890625 -1.886719 -2 -1.886719 z m 0 0" fill-opacity="0.184104"/>
                </g>
            </g>
        </mask>
        <mask id="ar">
            <g filter="url(#c)">
                <rect fill-opacity="0.8" height="128" width="128"/>
            </g>
        </mask>
        <linearGradient id="as" gradientTransform="matrix(0 0.37 -0.98462 0 295.38501 -30.360001)" gradientUnits="userSpaceOnUse" x1="300" x2="428" y1="235" y2="235">
            <stop offset="0" stop-color="#f9f06b"/>
            <stop offset="1" stop-color="#f5c211"/>
        </linearGradient>
        <clipPath id="at">
            <rect height="128" width="128"/>
        </clipPath>
        <clipPath id="au">
            <rect height="128" width="128"/>
        </clipPath>
    </defs>
    <path d="m 101.765625 89 h 8.46875 c 2.078125 0 3.765625 1.6875 3.765625 3.765625 v 8.46875 c 0 2.078125 -1.6875 3.765625 -3.765625 3.765625 h -8.46875 c -2.078125 0 -3.765625 -1.6875 -3.765625 -3.765625 v -8.46875 c 0 -2.078125 1.6875 -3.765625 3.765625 -3.765625 z m 0 0" fill="#c0bfbc"/>
    <path d="m 101.179688 88 h 9.640624 c 1.753907 0 3.179688 1.425781 3.179688 3.179688 v 9.640624 c 0 1.753907 -1.425781 3.179688 -3.179688 3.179688 h -9.640624 c -1.753907 0 -3.179688 -1.425781 -3.179688 -3.179688 v -9.640624 c 0 -1.753907 1.425781 -3.179688 3.179688 -3.179688 z m 0 0" fill="url(#a)"/>
    <path d="m 118 48 v 36 c 0 4 -2.898438 8 -8 8" fill="none" stroke="#c0bfbc" stroke-linecap="round" stroke-width="6"/>
    <path d="m 14.855469 28 h 82.289062 c 3.785157 0 6.855469 3.664062 6.855469 8.1875 v 71.625 c 0 4.523438 -3.070312 8.1875 -6.855469 8.1875 h -82.289062 c -3.785157 0 -6.855469 -3.664062 -6.855469 -8.1875 v -71.625 c 0 -4.523438 3.070312 -8.1875 6.855469 -8.1875 z m 0 0" fill="#f6f5f4"/>
    <path d="m 15.824219 32 h 80.351562 c 2.109375 0 3.824219 1.789062 3.824219 4 v 68 c 0 2.210938 -1.714844 4 -3.824219 4 h -80.351562 c -2.109375 0 -3.824219 -1.789062 -3.824219 -4 v -68 c 0 -2.210938 1.714844 -4 3.824219 -4 z m 0 0" fill="#241f31"/>
    <path d="m 8 106 v 4 c 0 4.433594 3.566406 8 8 8 h 79.945312 c 4.429688 0 8 -3.566406 8 -8 v -4 c 0 4.433594 -3.570312 8 -8 8 h -79.945312 c -4.433594 0 -8 -3.566406 -8 -8 z m 0 0" fill="url(#b)"/>
    <use mask="url(#d)" transform="matrix(1 0 0 1 -8 -16)" xlink:href="#L"/>
    <g fill="url(#e)">
        <path d="m 18 36 h 20 c 1.105469 0 2 0.84375 2 1.890625 v 64.21875 c 0 1.046875 -0.894531 1.890625 -2 1.890625 h -20 c -1.105469 0 -2 -0.84375 -2 -1.890625 v -64.21875 c 0 -1.046875 0.894531 -1.890625 2 -1.890625 z m 0 0"/>
        <path d="m 46 36 h 20 c 1.105469 0 2 0.84375 2 1.890625 v 64.21875 c 0 1.046875 -0.894531 1.890625 -2 1.890625 h -20 c -1.105469 0 -2 -0.84375 -2 -1.890625 v -64.21875 c 0 -1.046875 0.894531 -1.890625 2 -1.890625 z m 0 0"/>
        <path d="m 74 36 h 20 c 1.105469 0 2 0.84375 2 1.890625 v 64.21875 c 0 1.046875 -0.894531 1.890625 -2 1.890625 h -20 c -1.105469 0 -2 -0.84375 -2 -1.890625 v -64.21875 c 0 -1.046875 0.894531 -1.890625 2 -1.890625 z m 0 0"/>
    </g>
    <g clip-path="url(#f)">
        <g clip-path="url(#g)">
            <path d="m 60.632812 46.921875 c -0.941406 0.675781 -3.847656 -2.277344 -5.003906 -2.28125 c -1.160156 -0.007813 -4.089844 2.925781 -5.023437 2.242187 c -0.9375 -0.6875 0.976562 -4.363281 0.625 -5.464843 c -0.355469 -1.105469 -4.046875 -2.988281 -3.6875 -4.085938 c 0.363281 -1.101562 4.453125 -0.417969 5.390625 -1.097656 c 0.941406 -0.675781 1.589844 -4.769531 2.75 -4.765625 c 1.15625 0.003906 1.769531 4.105469 2.703125 4.789062 c 0.933593 0.683594 5.03125 0.035157 5.382812 1.140626 c 0.355469 1.101562 -3.355469 2.953124 -3.714843 4.050781 c -0.363282 1.101562 1.515624 4.796875 0.578124 5.472656 z m 0 0" fill="#ff7800"/>
        </g>
    </g>
    <g clip-path="url(#h)">
        <g clip-path="url(#i)">
            <path d="m 31.789062 33.207031 c -0.925781 0 -1.757812 0.328125 -2.5 0.984375 c -0.628906 0.648438 -1.300781 1.667969 -1.300781 1.667969 v 0.003906 s -0.667969 -1.019531 -1.300781 -1.667969 c -0.738281 -0.65625 -1.574219 -0.984374 -2.5 -0.984374 c -1.429688 0 -2.578125 0.679687 -3.441406 2.039062 c -0.222656 0.503906 -0.332032 0.980469 -0.332032 1.421875 c 0 1.519531 0.714844 2.964844 2.140626 4.34375 l 5.433593 5.777344 v -0.003907 l 5.4375 -5.777343 c 1.425781 -1.378907 2.140625 -2.828125 2.140625 -4.34375 c 0 -0.445313 -0.113281 -0.917969 -0.332031 -1.421875 c -0.863281 -1.359375 -2.011719 -2.039063 -3.445313 -2.039063 z m 0 0" fill="#ed333b"/>
        </g>
    </g>
    <g clip-path="url(#j)">
        <g clip-path="url(#k)">
            <path d="m 32.984375 110.921875 c -0.9375 0.675781 -3.84375 -2.277344 -5.003906 -2.28125 c -1.15625 -0.007813 -4.089844 2.925781 -5.023438 2.242187 c -0.933593 -0.6875 0.976563 -4.363281 0.625 -5.464843 c -0.351562 -1.105469 -4.046875 -2.988281 -3.683593 -4.085938 c 0.359374 -1.101562 4.449218 -0.417969 5.390624 -1.097656 c 0.9375 -0.675781 1.589844 -4.769531 2.746094 -4.765625 s 1.773438 4.105469 2.707032 4.789062 c 0.933593 0.683594 5.027343 0.035157 5.382812 1.140626 c 0.351562 1.101562 -3.355469 2.953124 -3.71875 4.050781 c -0.363281 1.101562 1.519531 4.796875 0.578125 5.472656 z m 0 0" fill="#ff7800"/>
        </g>
    </g>
    <g clip-path="url(#l)">
        <g clip-path="url(#m)">
            <path d="m 87.800781 95.207031 c -0.925781 0 -1.757812 0.328125 -2.5 0.984375 c -0.632812 0.648438 -1.300781 1.667969 -1.300781 1.667969 v 0.003906 s -0.667969 -1.019531 -1.300781 -1.667969 c -0.742188 -0.65625 -1.574219 -0.984374 -2.5 -0.984374 c -1.433594 0 -2.582031 0.679687 -3.445313 2.039062 c -0.21875 0.503906 -0.328125 0.980469 -0.328125 1.421875 c 0 1.519531 0.714844 2.964844 2.140625 4.34375 l 5.433594 5.777344 v -0.003907 l 5.433594 -5.777343 c 1.425781 -1.378907 2.140625 -2.828125 2.140625 -4.34375 c 0 -0.445313 -0.109375 -0.917969 -0.328125 -1.421875 c -0.863282 -1.359375 -2.011719 -2.039063 -3.445313 -2.039063 z m 0 0" fill="#ed333b"/>
        </g>
    </g>
    <g clip-path="url(#n)">
        <g clip-path="url(#o)">
            <path d="m 79.25 62.496094 c -0.121094 -0.011719 -0.25 -0.003906 -0.367188 0.03125 c -0.117187 0.035156 -0.226562 0.097656 -0.3125 0.1875 c -0.089843 0.085937 -0.148437 0.199218 -0.179687 0.316406 c -0.035156 0.121094 -0.039063 0.246094 -0.042969 0.367188 l -0.109375 3.675781 c -0.011719 0.285156 -0.015625 0.566406 0.042969 0.84375 c 0.058594 0.273437 0.179688 0.539062 0.367188 0.75 c 0.183593 0.210937 0.4375 0.363281 0.707031 0.4375 c 0.273437 0.074219 0.5625 0.066406 0.835937 -0.003907 c 0.171875 -0.042968 0.335938 -0.113281 0.480469 -0.214843 c 0.140625 -0.101563 0.261719 -0.238281 0.339844 -0.394531 c 0.082031 -0.15625 0.117187 -0.332032 0.117187 -0.507813 s -0.035156 -0.351563 -0.074218 -0.523437 l -0.246094 -1.121094 c 0.1875 -0.347656 0.484375 -0.632813 0.839844 -0.804688 c 0.359374 -0.171875 0.769531 -0.226562 1.15625 -0.15625 c 0.449218 0.082032 0.851562 0.324219 1.21875 0.59375 c 0.367187 0.269532 0.710937 0.574219 1.101562 0.808594 c 0.535156 0.324219 1.152344 0.511719 1.78125 0.539062 l -3.820312 6 c -0.4375 0.6875 -0.863282 1.386719 -1.117188 2.15625 c -0.257812 0.769532 -0.347656 1.601563 -0.203125 2.398438 c 0.054687 0.328125 0.15625 0.660156 0.351563 0.929688 c 0.195312 0.269531 0.488281 0.476562 0.820312 0.527343 c 0.164062 0.023438 0.335938 0.011719 0.496094 -0.039062 c 0.160156 -0.046875 0.308594 -0.128907 0.433594 -0.238281 c 0.257812 -0.214844 0.414062 -0.519532 0.558593 -0.820313 l 6.320313 -13.226563 c 0.046875 -0.089843 0.089844 -0.183593 0.113281 -0.28125 c 0.027344 -0.097656 0.035156 -0.203124 0.019531 -0.300781 c -0.015625 -0.101562 -0.054687 -0.199219 -0.117187 -0.277343 c -0.0625 -0.082032 -0.140625 -0.148438 -0.230469 -0.195313 c -0.164062 -0.082031 -0.359375 -0.101563 -0.53125 -0.046875 c -0.175781 0.050781 -0.328125 0.171875 -0.417969 0.328125 l -0.765625 0.996094 c -0.109375 0.136719 -0.257812 0.242187 -0.425781 0.300781 c -0.164063 0.058594 -0.347656 0.070312 -0.519531 0.027344 c -0.164063 -0.035156 -0.3125 -0.117188 -0.445313 -0.222656 c -0.128906 -0.105469 -0.238281 -0.234376 -0.332031 -0.371094 c -0.191406 -0.277344 -0.328125 -0.585938 -0.503906 -0.867188 c -0.335938 -0.542968 -0.824219 -0.988281 -1.394532 -1.269531 c -0.570312 -0.285156 -1.21875 -0.410156 -1.851562 -0.355469 c -0.632812 0.054688 -1.25 0.285156 -1.761719 0.664063 c -0.511719 0.378906 -0.917969 0.898437 -1.15625 1.488281 l -0.273437 -1.226562 c -0.023438 -0.113282 -0.050782 -0.226563 -0.09375 -0.332032 c -0.046875 -0.109375 -0.109375 -0.207031 -0.1875 -0.292968 c -0.160156 -0.167969 -0.390625 -0.257813 -0.621094 -0.277344 z m 0 0" fill="#9141ac"/>
        </g>
    </g>
    <g clip-path="url(#p)">
        <g clip-path="url(#q)">
            <path d="m 51.382812 97.441406 c -0.125 -0.011718 -0.25 -0.003906 -0.367187 0.03125 s -0.230469 0.097656 -0.316406 0.183594 c -0.085938 0.089844 -0.144531 0.203125 -0.179688 0.320312 c -0.03125 0.121094 -0.039062 0.246094 -0.039062 0.367188 l -0.113281 3.675781 c -0.007813 0.28125 -0.011719 0.566407 0.046874 0.84375 c 0.058594 0.273438 0.175782 0.539063 0.363282 0.75 c 0.1875 0.210938 0.4375 0.363281 0.710937 0.4375 c 0.269531 0.074219 0.5625 0.066407 0.835938 -0.003906 c 0.167969 -0.042969 0.335937 -0.113281 0.476562 -0.214844 c 0.144531 -0.101562 0.265625 -0.238281 0.34375 -0.394531 s 0.117188 -0.332031 0.117188 -0.507812 c 0 -0.175782 -0.035157 -0.351563 -0.074219 -0.523438 l -0.25 -1.121094 c 0.1875 -0.347656 0.488281 -0.632812 0.84375 -0.804687 s 0.765625 -0.226563 1.15625 -0.15625 c 0.449219 0.082031 0.851562 0.324219 1.21875 0.59375 s 0.710938 0.574219 1.097656 0.808593 c 0.539063 0.324219 1.15625 0.511719 1.785156 0.535157 l -3.820312 6.003906 c -0.4375 0.683594 -0.863281 1.386719 -1.121094 2.15625 c -0.253906 0.769531 -0.34375 1.601563 -0.203125 2.398437 c 0.058594 0.328126 0.160157 0.660157 0.355469 0.929688 c 0.191406 0.269531 0.488281 0.476562 0.820312 0.523438 c 0.164063 0.027343 0.335938 0.015624 0.492188 -0.035157 c 0.160156 -0.046875 0.308594 -0.128906 0.4375 -0.238281 c 0.253906 -0.214844 0.414062 -0.519531 0.558594 -0.820312 l 6.320312 -13.226563 c 0.042969 -0.089844 0.085938 -0.183594 0.113282 -0.28125 c 0.027343 -0.097656 0.035156 -0.203125 0.019531 -0.300781 c -0.015625 -0.101563 -0.058594 -0.199219 -0.117188 -0.277344 c -0.0625 -0.082031 -0.144531 -0.148438 -0.234375 -0.195312 c -0.160156 -0.082032 -0.355468 -0.101563 -0.53125 -0.046876 c -0.171875 0.050782 -0.324218 0.171876 -0.417968 0.328126 l -0.761719 0.996093 c -0.109375 0.136719 -0.257813 0.242188 -0.425781 0.300781 c -0.167969 0.058594 -0.347657 0.070313 -0.519532 0.027344 c -0.164062 -0.035156 -0.316406 -0.117187 -0.445312 -0.222656 s -0.238282 -0.234375 -0.335938 -0.371094 c -0.191406 -0.277344 -0.324218 -0.585937 -0.503906 -0.871094 c -0.335938 -0.539062 -0.824219 -0.984374 -1.390625 -1.269531 c -0.570313 -0.28125 -1.21875 -0.40625 -1.851563 -0.351562 c -0.632812 0.054687 -1.25 0.285156 -1.761718 0.664062 c -0.511719 0.378907 -0.917969 0.898438 -1.15625 1.488281 l -0.273438 -1.226562 c -0.027344 -0.113281 -0.050781 -0.226562 -0.097656 -0.332031 c -0.042969 -0.109375 -0.105469 -0.207031 -0.183594 -0.292969 c -0.164062 -0.167969 -0.390625 -0.257812 -0.621094 -0.277344 z m 0 0" fill="#9141ac"/>
        </g>
    </g>
    <g clip-path="url(#r)">
        <g clip-path="url(#s)">
            <path d="m 28 62 c -2.210938 0 -4 1.789062 -4 4 c 0.003906 0.71875 0.199219 1.425781 0.566406 2.042969 c -0.1875 -0.027344 -0.375 -0.042969 -0.566406 -0.042969 c -2.210938 0 -4 1.789062 -4 4 s 1.789062 4 4 4 c 0.90625 -0.003906 1.78125 -0.3125 2.488281 -0.878906 l -0.488281 2.878906 h 4 l -0.488281 -2.878906 c 0.707031 0.566406 1.582031 0.875 2.488281 0.878906 c 2.210938 0 4 -1.789062 4 -4 s -1.789062 -4 -4 -4 c -0.191406 0 -0.378906 0.015625 -0.566406 0.039062 c 0.367187 -0.613281 0.5625 -1.320312 0.566406 -2.039062 c 0 -2.210938 -1.789062 -4 -4 -4 z m 0 0" fill="#3d3846"/>
        </g>
    </g>
    <g clip-path="url(#t)">
        <g clip-path="url(#u)">
            <path d="m 84.488281 30.878906 c -2.210937 0 -4 1.789063 -4 4 c 0.003907 0.71875 0.199219 1.425782 0.566407 2.042969 c -0.1875 -0.027344 -0.375 -0.042969 -0.566407 -0.042969 c -2.210937 0 -4 1.789063 -4 4 c 0 2.210938 1.789063 4 4 4 c 0.90625 -0.003906 1.78125 -0.3125 2.488281 -0.878906 l -0.488281 2.878906 h 4 l -0.488281 -2.878906 c 0.707031 0.566406 1.582031 0.875 2.488281 0.878906 c 2.210938 0 4 -1.789062 4 -4 c 0 -2.210937 -1.789062 -4 -4 -4 c -0.191406 0 -0.378906 0.015625 -0.566406 0.039063 c 0.367187 -0.613281 0.5625 -1.320313 0.566406 -2.039063 c 0 -2.210937 -1.789062 -4 -4 -4 z m 0 0" fill="#3d3846"/>
        </g>
    </g>
    <g clip-path="url(#v)">
        <g clip-path="url(#w)">
            <path d="m 52 246 c -0.6875 -6.722656 2.730469 -10.664062 10 -12 c -1.832031 1.957031 -2.75 4.988281 -2 10" fill="none" stroke="#26a269" stroke-linecap="square" stroke-linejoin="bevel" stroke-width="2" transform="matrix(1 0 0 1 0 -172)"/>
        </g>
    </g>
    <g clip-path="url(#x)">
        <g clip-path="url(#y)">
            <path d="m 56 74 c 0 2.210938 -1.789062 4 -4 4 s -4 -1.789062 -4 -4 s 1.789062 -4 4 -4 s 4 1.789062 4 4 z m 0 0" fill="#c01c28"/>
        </g>
    </g>
    <g clip-path="url(#z)">
        <g clip-path="url(#A)">
            <path d="m 64 74 c 0 2.210938 -1.789062 4 -4 4 s -4 -1.789062 -4 -4 s 1.789062 -4 4 -4 s 4 1.789062 4 4 z m 0 0" fill="#c01c28"/>
        </g>
    </g>
    <g clip-path="url(#B)">
        <g clip-path="url(#C)">
            <path d="m 54 72 c 0 0.550781 -0.894531 1 -2 1 s -2 -0.449219 -2 -1 s 0.894531 -1 2 -1 s 2 0.449219 2 1 z m 0 0" fill="#f19fa5"/>
        </g>
    </g>
    <g clip-path="url(#D)">
        <g clip-path="url(#E)">
            <path d="m 62 72 c 0 0.550781 -0.894531 1 -2 1 s -2 -0.449219 -2 -1 s 0.894531 -1 2 -1 s 2 0.449219 2 1 z m 0 0" fill="#f19fa5"/>
        </g>
    </g>
    <g clip-path="url(#F)">
        <g clip-path="url(#G)">
            <path d="m 62 61 s -3.203125 3.917969 -2 6 c 2.308594 4 6 1 6 1 z m 0 0" fill="#33d17a"/>
        </g>
    </g>
    <path d="m 12 61.570312 l 11.3125 11.3125 l -11.3125 11.316407 z m 0 0" fill-opacity="0.193559"/>
    <path d="m 12 58.6875 l 11.3125 11.3125 l -11.3125 11.3125 z m 0 0" fill="#f6f5f4"/>
    <path d="m 100.1875 61.570312 l -11.3125 11.3125 l 11.3125 11.316407 z m 0 0" fill-opacity="0.193559"/>
    <path d="m 100.1875 58.6875 l -11.3125 11.3125 l 11.3125 11.3125 z m 0 0" fill="#f6f5f4"/>
    <path d="m 117 54 v 31 c 0 2.964844 -3.074219 6.207031 -6 6" fill="none" stroke="#deddda" stroke-linecap="round" stroke-width="2"/>
    <path d="m 128 46 c 0 5.523438 -4.476562 10 -10 10 s -10 -4.476562 -10 -10 s 4.476562 -10 10 -10 s 10 4.476562 10 10 z m 0 0" fill="url(#H)"/>
    <path d="m 122 42 c 0 1.839844 -1.789062 3.332031 -4 3.332031 s -4 -1.492187 -4 -3.332031 s 1.789062 -3.332031 4 -3.332031 s 4 1.492187 4 3.332031 z m 0 0" fill="#fde5e2" fill-opacity="0.994802"/>
    <path d="m 18 36 c -1.109375 0 -2 0.84375 -2 1.886719 v 4 c 0 -1.042969 0.890625 -1.886719 2 -1.886719 h 76 c 1.109375 0 2 0.84375 2 1.886719 v -4 c 0 -1.042969 -0.890625 -1.886719 -2 -1.886719 z m 0 0" fill-opacity="0.184104"/>
    <g clip-path="url(#au)" mask="url(#aq)">
        <g clip-path="url(#at)" mask="url(#ar)">
            <path d="m 128 80.640625 v 47.359375 h -128 v -47.359375 z m 0 0" fill="url(#as)"/>
            <path d="m 13.308594 80.640625 l 47.355468 47.359375 h 21.214844 l -47.359375 -47.359375 z m 42.421875 0 l 47.363281 47.359375 h 21.214844 l -47.363282 -47.359375 z m 42.429687 0 l 29.839844 29.839844 v -21.210938 l -8.628906 -8.628906 z m -98.160156 7.90625 v 21.214844 l 18.238281 18.238281 h 21.214844 z m 0 0"/>
        </g>
    </g>
</svg>
