<?xml version="1.0" encoding="UTF-8"?>
<svg height="128px" viewBox="0 0 128 128" width="128px" xmlns="http://www.w3.org/2000/svg" xmlns:xlink="http://www.w3.org/1999/xlink">
    <radialGradient id="a" cx="64.000069" cy="61.999985" gradientUnits="userSpaceOnUse" r="54">
        <stop offset="0"/>
        <stop offset="0.752899" stop-color="#241f31"/>
        <stop offset="1" stop-color="#322e39"/>
    </radialGradient>
    <filter id="b" height="100%" width="100%" x="0%" y="0%">
        <feColorMatrix in="SourceGraphic" type="matrix" values="0 0 0 0 1 0 0 0 0 1 0 0 0 0 1 0 0 0 1 0"/>
    </filter>
    <mask id="c">
        <g filter="url(#b)">
            <rect fill-opacity="0.2" height="128" width="128"/>
        </g>
    </mask>
    <clipPath id="d">
        <rect height="152" width="192"/>
    </clipPath>
    <linearGradient id="e" gradientTransform="matrix(1.829394 -0.815994 0.815994 1.829394 -3645.962158 99.02948)" gradientUnits="userSpaceOnUse" x1="1660.857056" x2="1662.990112" y1="806.29718" y2="812.882446">
        <stop offset="0" stop-color="#949390"/>
        <stop offset="1" stop-color="#68676b"/>
    </linearGradient>
    <mask id="f">
        <g filter="url(#b)">
            <rect fill-opacity="0.1" height="128" width="128"/>
        </g>
    </mask>
    <clipPath id="g">
        <rect height="152" width="192"/>
    </clipPath>
    <path d="m 124 64 c 0 33.136719 -26.863281 60 -60 60 s -60 -26.863281 -60 -60 s 26.863281 -60 60 -60 s 60 26.863281 60 60 z m 0 0" fill="#5e5c64"/>
    <path d="m 64 6 c 30.929688 0 56 25.070312 56 56 v 2 c 0 30.929688 -25.070312 56 -56 56 s -56 -25.070312 -56 -56 v -2 c 0 -30.929688 25.070312 -56 56 -56 z m 0 0" fill="#d5d3cf"/>
    <path d="m 124 62 c 0 33.136719 -26.863281 60 -60 60 s -60 -26.863281 -60 -60 s 26.863281 -60 60 -60 s 60 26.863281 60 60 z m 0 0" fill="#3d3846"/>
    <path d="m 118 62 c 0 29.824219 -24.175781 54 -54 54 s -54 -24.175781 -54 -54 s 24.175781 -54 54 -54 s 54 24.175781 54 54 z m 0 0" fill="url(#a)"/>
    <g clip-path="url(#d)" mask="url(#c)" transform="matrix(1 0 0 1 -8 -16)">
        <path d="m 75.285156 74.988281 c -1.660156 -1.085937 -3.75 -1.28125 -5.582031 -0.523437 l -14.222656 -15.800782 c -0.402344 -0.460937 -0.992188 -0.710937 -1.601563 -0.683593 c -1.703125 0.082031 -2.53125 2.113281 -1.375 3.363281 l 14.21875 15.800781 c -0.890625 1.636719 -0.96875 3.597657 -0.210937 5.304688 c 0.503906 1.125 1.34375 2.066406 2.40625 2.699219 l 1.863281 0.726562 c 1.230469 0.253906 2.507812 0.117188 3.65625 -0.390625 c 3.023438 -1.351563 4.382812 -4.898437 3.035156 -7.925781 c -0.757812 -0.335938 -2.1875 -2.570313 -2.1875 -2.570313 z m 0 0" fill-rule="evenodd"/>
    </g>
    <path d="m 64 234 l -18 -20" fill="none" stroke="url(#e)" stroke-linecap="round" stroke-width="4.00626" transform="matrix(1 0 0 1 0 -172)"/>
    <path d="m 69.480469 59.554688 c 1.347656 3.027343 -0.011719 6.574218 -3.035157 7.925781 c -3.027343 1.347656 -6.574218 -0.011719 -7.925781 -3.035157 c -1.347656 -3.027343 0.011719 -6.574218 3.035157 -7.925781 c 3.027343 -1.347656 6.574218 0.011719 7.925781 3.035157 z m 0 0" fill="#d5d3cf"/>
    <path d="m 40.480469 28.449219 c 1.351562 3.027343 -0.007813 6.574219 -3.035157 7.925781 c -3.027343 1.347656 -6.574218 -0.011719 -7.921874 -3.035156 c -1.351563 -3.027344 0.007812 -6.574219 3.035156 -7.925782 c 3.023437 -1.347656 6.574218 0.011719 7.921875 3.035157 z m 0 0" fill="#ffa348"/>
    <path d="m 99.101562 90.546875 c 1.351563 3.027344 -0.007812 6.574219 -3.035156 7.925781 c -3.027344 1.347656 -6.574218 -0.011718 -7.925781 -3.035156 c -1.347656 -3.027344 0.011719 -6.574219 3.039063 -7.925781 c 3.023437 -1.347657 6.570312 0.011719 7.921874 3.035156 z m 0 0" fill="#57e389"/>
    <path d="m 40.480469 90.546875 c 1.351562 3.027344 -0.007813 6.574219 -3.035157 7.925781 c -3.027343 1.347656 -6.574218 -0.011718 -7.921874 -3.035156 c -1.351563 -3.027344 0.007812 -6.574219 3.035156 -7.925781 c 3.023437 -1.347657 6.574218 0.011719 7.921875 3.035156 z m 0 0" fill="#c061cb"/>
    <path d="m 99.101562 28.449219 c 1.351563 3.027343 -0.007812 6.574219 -3.035156 7.925781 c -3.027344 1.347656 -6.574218 -0.011719 -7.925781 -3.035156 c -1.347656 -3.027344 0.011719 -6.574219 3.039063 -7.925782 c 3.023437 -1.347656 6.570312 0.011719 7.921874 3.035157 z m 0 0" fill="#ed333b"/>
    <g clip-path="url(#g)" mask="url(#f)" transform="matrix(1 0 0 1 -8 -16)">
        <path d="m 72 24 c -29.824219 0 -54 24.175781 -54 54 c 0.007812 0.390625 0.023438 0.78125 0.042969 1.171875 c 0.453125 -29.484375 24.472656 -53.152344 53.957031 -53.171875 c 29.355469 0.015625 53.320312 23.480469 53.957031 52.828125 c 0.015625 -0.277344 0.03125 -0.550781 0.042969 -0.828125 c 0 -29.824219 -24.175781 -54 -54 -54 z m 0 0"/>
    </g>
</svg>
