<?xml version="1.0" encoding="UTF-8"?>
<svg height="128px" viewBox="0 0 128 128" width="128px" xmlns="http://www.w3.org/2000/svg" xmlns:xlink="http://www.w3.org/1999/xlink">
    <linearGradient id="a" gradientUnits="userSpaceOnUse" x1="63.974533" x2="63.970856" y1="43.636688" y2="2">
        <stop offset="0" stop-color="#241f31"/>
        <stop offset="1" stop-color="#3d3846"/>
    </linearGradient>
    <path d="m 63.972656 6 c 30.925782 0 56 25.070312 56 56 v 2 c 0 30.929688 -25.074218 56 -56 56 c -30.929687 0 -56 -25.070312 -56 -56 v -2 c 0 -30.929688 25.070313 -56 56 -56 z m 0 0" fill="#d5d3cf"/>
    <path d="m 123.972656 62 c 0 33.136719 -26.863281 60 -60 60 c -33.140625 0 -60 -26.863281 -60 -60 s 26.859375 -60 60 -60 c 33.136719 0 60 26.863281 60 60 z m 0 0" fill="url(#a)"/>
    <path d="m 117.972656 62 c 0 29.824219 -24.179687 54 -54 54 c -29.824218 0 -54 -24.175781 -54 -54 s 24.175782 -54 54 -54 c 29.820313 0 54 24.175781 54 54 z m 0 0" fill="url(#a)"/>
    <path d="m 86.960938 89.328125 l -45.996094 -0.171875 c -1.03125 -0.003906 -1.980469 -0.558594 -2.492188 -1.453125 c -0.511718 -0.894531 -0.507812 -1.996094 0.011719 -2.886719 l 23.144531 -39.746094 c 0.519532 -0.890624 1.472656 -1.4375 2.503906 -1.433593 c 1.035157 0.003906 1.984376 0.558593 2.496094 1.453125 l 22.847656 39.917968 c 0.511719 0.894532 0.507813 1.996094 -0.011718 2.886719 c -0.515625 0.890625 -1.472656 1.4375 -2.503906 1.433594 z m 0 0" fill="#0d305b"/>
    <path d="m 66.640625 86.839844 l -19.28125 -4.976563 c -0.996094 -0.257812 -1.78125 -1.027343 -2.058594 -2.023437 c -0.277343 -0.992188 0 -2.058594 0.722657 -2.792969 l 13.949218 -14.210937 c 0.722656 -0.734376 1.78125 -1.03125 2.78125 -0.773438 s 1.785156 1.027344 2.058594 2.023438 l 5.332031 19.183593 c 0.277344 0.996094 0 2.0625 -0.722656 2.796875 s -1.78125 1.03125 -2.78125 0.773438 z m 0 0" fill="#617893"/>
</svg>
