<svg xmlns="http://www.w3.org/2000/svg" xmlns:xlink="http://www.w3.org/1999/xlink" width="128" height="128"><defs><path id="s" fill="#ed333b" d="M99.1 28.4a6 6 0 1 1-11 5 6 6 0 0 1 11-5zm0 0"/><path id="r" fill="#c061cb" d="M40.5 90.5a6 6 0 1 1-11 5 6 6 0 0 1 11-5zm0 0"/><path id="q" fill="#57e389" d="M99.1 90.5a6 6 0 1 1-11 5 6 6 0 0 1 11-5zm0 0"/><path id="p" fill="#ffa348" d="M40.5 28.4a6 6 0 1 1-11 5 6 6 0 0 1 11-5zm0 0"/><path id="o" fill="#d5d3cf" d="M69.5 59.6a6 6 0 1 1-11 4.8 6 6 0 0 1 11-4.8zm0 0"/><path id="n" fill="none" stroke="url(#a)" stroke-linecap="round" stroke-width="4" d="m64 234-18-20"/><path id="k" fill="url(#b)" d="M118 62a54 54 0 1 1-108 0 54 54 0 0 1 108 0zm0 0"/><path id="j" fill="#3d3846" d="M124 62A60 60 0 1 1 4 62a60 60 0 0 1 120 0zm0 0"/><path id="i" fill="#d5d3cf" d="M64 6c31 0 56 25 56 56v2A56 56 0 1 1 8 64v-2C8 31 33 6 64 6zm0 0"/><path id="h" fill="#5e5c64" d="M124 64A60 60 0 1 1 4 64a60 60 0 0 1 120 0zm0 0"/><path id="d" d="M0 0h128v128H0z"/><path id="c" d="M0 0h192v152H0z"/></defs><defs><clipPath id="v"><use xlink:href="#c"/></clipPath><clipPath id="w"><use xlink:href="#c"/></clipPath><clipPath id="g"><use xlink:href="#d"/></clipPath><clipPath id="f"><use xlink:href="#d"/></clipPath><clipPath id="B"><use xlink:href="#d"/></clipPath><clipPath id="z"><use xlink:href="#d"/></clipPath><mask id="x"><g filter="url(#e)"><use fill-opacity=".2" xlink:href="#d"/></g></mask><mask id="y"><g filter="url(#e)"><use fill-opacity=".1" xlink:href="#d"/></g></mask><mask id="l"><g filter="url(#e)"><use fill-opacity=".2" xlink:href="#d"/></g></mask><mask id="t"><g filter="url(#e)"><use fill-opacity=".1" xlink:href="#d"/></g></mask><mask id="A"><g clip-path="url(#f)" filter="url(#e)"><g clip-path="url(#g)"><use xlink:href="#h"/><use xlink:href="#i"/><use xlink:href="#j"/><use xlink:href="#k"/><use mask="url(#l)" transform="translate(-8 -16)" xlink:href="#m"/><use stroke-linecap="round" stroke-width="4" transform="translate(0 -172)" xlink:href="#n"/><use xlink:href="#o"/><use xlink:href="#p"/><use xlink:href="#q"/><use xlink:href="#r"/><use xlink:href="#s"/><use mask="url(#t)" transform="translate(-8 -16)" xlink:href="#u"/></g></g></mask><mask id="C"><g filter="url(#e)"><use fill-opacity=".8" xlink:href="#d"/></g></mask><linearGradient id="a" x1="1660.9" x2="1663" y1="806.3" y2="812.9" gradientTransform="rotate(-24 -1590.4 8611.6) scale(2.00313)" gradientUnits="userSpaceOnUse"><stop offset="0" stop-color="#949390"/><stop offset="1" stop-color="#68676b"/></linearGradient><linearGradient id="D" x1="300" x2="428" y1="235" y2="235" gradientTransform="matrix(0 .37 -.98462 0 295.4 -30.4)" gradientUnits="userSpaceOnUse"><stop offset="0" stop-color="#f9f06b"/><stop offset="1" stop-color="#f5c211"/></linearGradient><g id="m" clip-path="url(#v)"><path fill-rule="evenodd" d="M75.3 75a6 6 0 0 0-5.6-.5L55.5 58.7a2 2 0 1 0-3 2.6l14.2 15.8a6 6 0 0 0 2.2 8l1.9.8a6 6 0 0 0 6.7-8.3c-.8-.4-2.2-2.6-2.2-2.6zm0 0"/></g><g id="u" clip-path="url(#w)"><path d="M72 24a54 54 0 0 0-54 55.2 54 54 0 0 1 108-.4V78a54 54 0 0 0-54-54zm0 0"/></g><radialGradient id="b" cx="64" cy="62" r="54" gradientUnits="userSpaceOnUse"><stop offset="0"/><stop offset=".8" stop-color="#241f31"/><stop offset="1" stop-color="#322e39"/></radialGradient><filter id="e" width="100%" height="100%" x="0%" y="0%"><feColorMatrix in="SourceGraphic" values="0 0 0 0 1 0 0 0 0 1 0 0 0 0 1 0 0 0 1 0"/></filter></defs><use xlink:href="#h"/><use xlink:href="#i"/><use xlink:href="#j"/><use xlink:href="#k"/><use mask="url(#x)" transform="translate(-8 -16)" xlink:href="#m"/><use stroke-linecap="round" stroke-width="4" transform="translate(0 -172)" xlink:href="#n"/><use xlink:href="#o"/><use xlink:href="#p"/><use xlink:href="#q"/><use xlink:href="#r"/><use xlink:href="#s"/><use mask="url(#y)" transform="translate(-8 -16)" xlink:href="#u"/><g clip-path="url(#z)" mask="url(#A)"><g clip-path="url(#B)" mask="url(#C)"><path fill="url(#D)" d="M128 80.6V128H0V80.6zm0 0"/><path d="M13.3 80.6 60.7 128h21.2L34.5 80.6zm42.4 0 47.4 47.4h21.2L77 80.6zm42.5 0 29.8 29.9V89.3l-8.6-8.7zM0 88.6v21.2L18.2 128h21.3zm0 0"/></g></g></svg>