<svg xmlns="http://www.w3.org/2000/svg" width="128" height="128"><radialGradient id="b" cx="64" cy="62" r="54" gradientUnits="userSpaceOnUse"><stop offset="0"/><stop offset=".753" stop-color="#241f31"/><stop offset="1" stop-color="#322e39"/></radialGradient><filter id="a" width="100%" height="100%" x="0%" y="0%"><feColorMatrix in="SourceGraphic" values="0 0 0 0 1 0 0 0 0 1 0 0 0 0 1 0 0 0 1 0"/></filter><mask id="d"><g filter="url(#a)"><path fill-opacity=".2" d="M0 0h128v128H0z"/></g></mask><clipPath id="c"><path d="M0 0h192v152H0z"/></clipPath><linearGradient id="e" x1="1660.857" x2="1662.99" y1="806.297" y2="812.882" gradientTransform="rotate(-24.039 -1590.426 8611.61) scale(2.00313)" gradientUnits="userSpaceOnUse"><stop offset="0" stop-color="#949390"/><stop offset="1" stop-color="#68676b"/></linearGradient><mask id="g"><g filter="url(#a)"><path fill-opacity=".1" d="M0 0h128v128H0z"/></g></mask><clipPath id="f"><path d="M0 0h192v152H0z"/></clipPath><path fill="#5e5c64" d="M124 64c0 33.137-26.863 60-60 60S4 97.137 4 64 30.863 4 64 4s60 26.863 60 60zm0 0"/><path fill="#d5d3cf" d="M64 6c30.93 0 56 25.07 56 56v2c0 30.93-25.07 56-56 56S8 94.93 8 64v-2C8 31.07 33.07 6 64 6zm0 0"/><path fill="#3d3846" d="M124 62c0 33.137-26.863 60-60 60S4 95.137 4 62 30.863 2 64 2s60 26.863 60 60zm0 0"/><path fill="url(#b)" d="M118 62c0 29.824-24.176 54-54 54S10 91.824 10 62 34.176 8 64 8s54 24.176 54 54zm0 0"/><g clip-path="url(#c)" mask="url(#d)" transform="translate(-8 -16)"><path fill-rule="evenodd" d="M75.285 74.988a6.005 6.005 0 0 0-5.582-.523l-14.223-15.8a2.005 2.005 0 0 0-1.601-.685c-1.703.083-2.531 2.114-1.375 3.364l14.219 15.8a6.003 6.003 0 0 0-.211 5.305 5.994 5.994 0 0 0 2.406 2.7l1.863.726a6.026 6.026 0 0 0 3.656-.39 6.007 6.007 0 0 0 3.036-7.926c-.758-.336-2.188-2.57-2.188-2.57zm0 0"/></g><path fill="none" stroke="url(#e)" stroke-linecap="round" stroke-width="4.006" d="m64 234-18-20" transform="translate(0 -172)"/><path fill="#d5d3cf" d="M69.48 59.555a6.007 6.007 0 0 1-3.035 7.925 6.007 6.007 0 0 1-7.925-3.035 6.007 6.007 0 0 1 3.035-7.925 6.007 6.007 0 0 1 7.925 3.035zm0 0"/><path fill="#ffa348" d="M40.48 28.45a6 6 0 1 1-10.957 4.891A6 6 0 0 1 40.48 28.45zm0 0"/><path fill="#57e389" d="M99.102 90.547a6 6 0 1 1-10.961 4.89 6.005 6.005 0 0 1 3.039-7.925 6.004 6.004 0 0 1 7.922 3.035zm0 0"/><path fill="#c061cb" d="M40.48 90.547a6 6 0 1 1-10.957 4.892 6 6 0 0 1 10.957-4.892zm0 0"/><path fill="#ed333b" d="M99.102 28.45a6 6 0 1 1-10.961 4.89 6.005 6.005 0 0 1 3.039-7.926 6.004 6.004 0 0 1 7.922 3.035zm0 0"/><g clip-path="url(#f)" mask="url(#g)" transform="translate(-8 -16)"><path d="M72 24c-29.824 0-54 24.176-54 54 .008.39.023.781.043 1.172C18.496 49.688 42.516 26.02 72 26c29.355.016 53.32 23.48 53.957 52.828.016-.277.031-.55.043-.828 0-29.824-24.176-54-54-54zm0 0"/></g></svg>