<?xml version="1.0" encoding="UTF-8"?>
<svg xmlns:svg="http://www.w3.org/2000/svg" xmlns="http://www.w3.org/2000/svg" width="212.84375" height="25" viewBox="0 0 212.84375 25">
    <rect fill="#B7B329" width="93.703125" height="25" x="0" y="0" />
    <rect fill="#686517" width="119.140625" height="25" x="93.703125" y="0" />
    <g transform="translate(6.25, 18.414062)"><path transform="translate(0.000000,0)" d=" M 4.468750,-8.703125  C 2.343750,-8.703125 0.484375,-7.093750 0.484375,-4.218750  C 0.484375,-1.125000 2.109375,0.218750 4.250000,0.218750  C 6.140625,0.218750 7.546875,-0.734375 7.968750,-2.703125  L 6.531250,-2.703125  C 6.234375,-1.468750 5.453125,-0.828125 4.343750,-0.828125  C 3.078125,-0.828125 1.984375,-1.859375 1.984375,-4.312500  C 1.984375,-6.609375 3.109375,-7.640625 4.437500,-7.640625  C 5.562500,-7.640625 6.296875,-6.984375 6.609375,-5.625000  L 8.046875,-5.625000  C 7.796875,-7.484375 6.500000,-8.703125 4.468750,-8.703125 " fill="#ffffff" /><path transform="translate(8.468750,0)" d=" M 4.687500,-8.703125  C 1.812500,-8.703125 0.484375,-6.640625 0.484375,-4.234375  C 0.484375,-1.859375 1.812500,0.218750 4.687500,0.218750  C 7.562500,0.218750 8.890625,-1.859375 8.890625,-4.234375  C 8.890625,-6.640625 7.562500,-8.703125 4.687500,-8.703125  M 4.687500,-0.828125  C 2.968750,-0.828125 1.984375,-2.250000 1.984375,-4.234375  C 1.984375,-6.234375 2.968750,-7.640625 4.687500,-7.640625  C 6.406250,-7.640625 7.390625,-6.234375 7.390625,-4.234375  C 7.390625,-2.250000 6.406250,-0.828125 4.687500,-0.828125 " fill="#ffffff" /><path transform="translate(17.843750,0)" d=" M 12.468750,-6.640625  C 12.265625,-7.812500 11.406250,-8.703125 9.890625,-8.703125  C 9.140625,-8.703125 8.531250,-8.562500 8.093750,-8.203125  L 7.343750,-7.125000  C 7.031250,-8.046875 6.187500,-8.703125 4.890625,-8.703125  C 4.140625,-8.703125 3.531250,-8.562500 3.109375,-8.203125  L 2.562500,-7.250000  L 2.562500,-8.484375  L 1.187500,-8.484375  L 1.187500,0.000000  L 2.562500,0.000000  L 2.562500,-4.187500  C 2.562500,-6.765625 3.343750,-7.609375 4.421875,-7.609375  C 5.375000,-7.609375 5.984375,-7.156250 6.109375,-6.187500  C 6.156250,-5.765625 6.171875,-5.296875 6.171875,-4.546875  L 6.171875,0.000000  L 7.546875,0.000000  L 7.546875,-4.187500  C 7.546875,-6.765625 8.343750,-7.609375 9.406250,-7.609375  C 10.375000,-7.609375 10.968750,-7.156250 11.109375,-6.187500  C 11.156250,-5.765625 11.171875,-5.296875 11.171875,-4.546875  L 11.171875,0.000000  L 12.546875,0.000000  L 12.546875,-5.187500  C 12.546875,-5.875000 12.531250,-6.203125 12.468750,-6.640625 " fill="#ffffff" /><path transform="translate(31.531250,0)" d=" M 12.468750,-6.640625  C 12.265625,-7.812500 11.406250,-8.703125 9.890625,-8.703125  C 9.140625,-8.703125 8.531250,-8.562500 8.093750,-8.203125  L 7.343750,-7.125000  C 7.031250,-8.046875 6.187500,-8.703125 4.890625,-8.703125  C 4.140625,-8.703125 3.531250,-8.562500 3.109375,-8.203125  L 2.562500,-7.250000  L 2.562500,-8.484375  L 1.187500,-8.484375  L 1.187500,0.000000  L 2.562500,0.000000  L 2.562500,-4.187500  C 2.562500,-6.765625 3.343750,-7.609375 4.421875,-7.609375  C 5.375000,-7.609375 5.984375,-7.156250 6.109375,-6.187500  C 6.156250,-5.765625 6.171875,-5.296875 6.171875,-4.546875  L 6.171875,0.000000  L 7.546875,0.000000  L 7.546875,-4.187500  C 7.546875,-6.765625 8.343750,-7.609375 9.406250,-7.609375  C 10.375000,-7.609375 10.968750,-7.156250 11.109375,-6.187500  C 11.156250,-5.765625 11.171875,-5.296875 11.171875,-4.546875  L 11.171875,0.000000  L 12.546875,0.000000  L 12.546875,-5.187500  C 12.546875,-5.875000 12.531250,-6.203125 12.468750,-6.640625 " fill="#ffffff" /><path transform="translate(45.218750,0)" d=" M 8.218750,-8.484375  L 6.843750,-8.484375  L 6.843750,-4.750000  C 6.843750,-1.859375 5.796875,-0.859375 4.468750,-0.859375  C 3.312500,-0.859375 2.625000,-1.515625 2.500000,-2.484375  C 2.453125,-2.906250 2.437500,-3.375000 2.437500,-3.640625  L 2.437500,-8.484375  L 1.062500,-8.484375  L 1.062500,-3.390625  C 1.062500,-2.703125 1.078125,-2.375000 1.140625,-1.937500  C 1.328125,-0.765625 2.359375,0.218750 4.109375,0.218750  C 4.968750,0.218750 5.593750,0.078125 6.312500,-0.453125  L 6.843750,-1.437500  L 6.843750,0.000000  L 8.218750,0.000000  L 8.218750,-8.484375 " fill="#ffffff" /><path transform="translate(54.687500,0)" d=" M 8.312500,-6.218750  C 8.187500,-7.718750 7.156250,-8.703125 5.296875,-8.703125  C 4.437500,-8.703125 3.812500,-8.562500 3.093750,-8.000000  L 2.562500,-7.031250  L 2.562500,-8.484375  L 1.187500,-8.484375  L 1.187500,0.000000  L 2.562500,0.000000  L 2.562500,-3.734375  C 2.562500,-6.625000 3.687500,-7.609375 5.015625,-7.609375  C 6.312500,-7.609375 6.859375,-6.875000 6.937500,-5.890625  C 6.968750,-5.453125 6.968750,-5.109375 6.968750,-4.671875  L 6.968750,0.000000  L 8.359375,0.000000  L 8.359375,-4.765625  C 8.359375,-5.453125 8.359375,-5.796875 8.312500,-6.218750 " fill="#ffffff" /><path transform="translate(64.171875,0)" d=" M 1.875000,-11.265625  C 1.375000,-11.265625 0.984375,-10.875000 0.984375,-10.390625  C 0.984375,-9.890625 1.375000,-9.500000 1.875000,-9.500000  C 2.375000,-9.500000 2.750000,-9.890625 2.750000,-10.390625  C 2.750000,-10.875000 2.375000,-11.265625 1.875000,-11.265625  M 2.562500,0.000000  L 2.562500,-8.484375  L 1.187500,-8.484375  L 1.187500,0.000000  L 2.562500,0.000000 " fill="#ffffff" /><path transform="translate(67.984375,0)" d=" M 2.828125,-7.359375  L 4.421875,-7.359375  L 4.421875,-8.421875  L 2.828125,-8.421875  L 2.828125,-10.390625  L 1.453125,-10.390625  L 1.453125,-8.421875  L 0.312500,-8.421875  L 0.312500,-7.359375  L 1.453125,-7.359375  L 1.453125,-2.421875  C 1.453125,-1.937500 1.453125,-1.578125 1.468750,-1.359375  C 1.546875,-0.296875 2.093750,0.125000 3.156250,0.125000  C 3.531250,0.125000 3.921875,0.109375 4.312500,0.046875  L 4.312500,-0.953125  C 3.250000,-0.828125 2.906250,-1.015625 2.843750,-1.828125  C 2.828125,-2.046875 2.828125,-2.187500 2.828125,-2.484375  L 2.828125,-7.359375 " fill="#ffffff" /><path transform="translate(73.000000,0)" d=" M 8.109375,-8.484375  L 6.609375,-8.484375  L 4.093750,-1.031250  L 1.562500,-8.484375  L 0.015625,-8.484375  L 3.390625,0.437500  L 3.281250,0.734375  C 2.843750,1.859375 2.281250,2.218750 1.437500,2.218750  C 1.296875,2.218750 1.156250,2.218750 0.937500,2.203125  L 0.937500,3.328125  C 1.156250,3.359375 1.343750,3.359375 1.640625,3.359375  C 3.031250,3.359375 3.937500,2.515625 4.625000,0.718750  L 8.109375,-8.484375 " fill="#ffffff" /></g>
    <g transform="translate(99.953125, 18.414062)"><path transform="translate(0.000000,0)" d=" M 4.156250,0.000000  L 4.156250,-11.046875  L 1.281250,-11.046875  L 1.281250,0.000000  L 4.156250,0.000000 " fill="#ffffff" /><path transform="translate(5.031250,0)" d=" M 4.390625,-8.765625  C 2.109375,-8.765625 0.640625,-7.718750 0.640625,-6.015625  C 0.640625,-4.562500 1.609375,-3.812500 3.250000,-3.421875  C 4.765625,-3.078125 5.312500,-2.765625 5.312500,-2.218750  C 5.312500,-1.781250 4.906250,-1.562500 4.406250,-1.562500  C 3.796875,-1.562500 3.281250,-2.000000 3.125000,-2.656250  L 0.281250,-2.656250  C 0.515625,-0.734375 2.093750,0.218750 4.421875,0.218750  C 6.484375,0.218750 8.187500,-0.625000 8.187500,-2.453125  C 8.187500,-4.093750 7.093750,-4.765625 5.531250,-5.156250  C 3.906250,-5.546875 3.515625,-5.875000 3.515625,-6.359375  C 3.515625,-6.718750 3.812500,-6.968750 4.203125,-6.968750  C 4.718750,-6.968750 5.015625,-6.640625 5.140625,-6.046875  L 7.968750,-6.046875  C 7.750000,-7.593750 6.515625,-8.765625 4.390625,-8.765625 " fill="#ffffff" /><path transform="translate(13.484375,0)" d=" M 4.390625,-8.765625  C 2.109375,-8.765625 0.640625,-7.718750 0.640625,-6.015625  C 0.640625,-4.562500 1.609375,-3.812500 3.250000,-3.421875  C 4.765625,-3.078125 5.312500,-2.765625 5.312500,-2.218750  C 5.312500,-1.781250 4.906250,-1.562500 4.406250,-1.562500  C 3.796875,-1.562500 3.281250,-2.000000 3.125000,-2.656250  L 0.281250,-2.656250  C 0.515625,-0.734375 2.093750,0.218750 4.421875,0.218750  C 6.484375,0.218750 8.187500,-0.625000 8.187500,-2.453125  C 8.187500,-4.093750 7.093750,-4.765625 5.531250,-5.156250  C 3.906250,-5.546875 3.515625,-5.875000 3.515625,-6.359375  C 3.515625,-6.718750 3.812500,-6.968750 4.203125,-6.968750  C 4.718750,-6.968750 5.015625,-6.640625 5.140625,-6.046875  L 7.968750,-6.046875  C 7.750000,-7.593750 6.515625,-8.765625 4.390625,-8.765625 " fill="#ffffff" /><path transform="translate(21.937500,0)" d=" M 9.375000,-8.546875  L 6.500000,-8.546875  L 6.500000,-3.718750  C 6.500000,-2.578125 5.953125,-1.734375 5.046875,-1.734375  C 4.125000,-1.734375 3.750000,-2.203125 3.640625,-3.031250  C 3.593750,-3.453125 3.578125,-3.921875 3.578125,-4.187500  L 3.578125,-8.546875  L 0.703125,-8.546875  L 0.703125,-3.546875  C 0.703125,-2.859375 0.718750,-2.375000 0.781250,-1.937500  C 0.968750,-0.765625 2.046875,0.218750 3.812500,0.218750  C 4.593750,0.218750 5.203125,0.046875 5.734375,-0.265625  L 6.500000,-1.437500  L 6.500000,0.000000  L 9.375000,0.000000  L 9.375000,-8.546875 " fill="#ffffff" /><path transform="translate(32.171875,0)" d=" M 9.234375,-4.390625  C 9.234375,-6.593750 7.796875,-8.765625 4.937500,-8.765625  C 2.093750,-8.765625 0.390625,-6.734375 0.390625,-4.234375  C 0.390625,-1.234375 2.343750,0.218750 4.781250,0.218750  C 6.968750,0.218750 8.578125,-0.859375 9.078125,-2.796875  L 6.234375,-2.796875  C 6.125000,-2.140625 5.625000,-1.734375 4.812500,-1.734375  C 4.000000,-1.734375 3.375000,-2.125000 3.234375,-3.546875  L 9.187500,-3.546875  C 9.218750,-3.843750 9.234375,-4.125000 9.234375,-4.390625  M 4.796875,-6.812500  C 5.562500,-6.812500 6.062500,-6.312500 6.218750,-5.312500  L 3.328125,-5.312500  C 3.515625,-6.375000 4.046875,-6.812500 4.796875,-6.812500 " fill="#ffffff" /><path transform="translate(41.781250,0)" d="" fill="#ffffff" /><path transform="translate(44.593750,0)" d=" M 10.265625,-8.796875  L 10.265625,-11.046875  L 0.218750,-11.046875  L 0.218750,-8.796875  L 3.812500,-8.796875  L 3.812500,0.000000  L 6.687500,0.000000  L 6.687500,-8.796875  L 10.265625,-8.796875 " fill="#ffffff" /><path transform="translate(54.703125,0)" d=" M 6.031250,-8.765625  C 5.484375,-8.765625 4.812500,-8.531250 4.359375,-8.015625  L 3.750000,-6.812500  L 3.750000,-8.546875  L 0.859375,-8.546875  L 0.859375,0.000000  L 3.750000,0.000000  L 3.750000,-3.140625  C 3.750000,-5.718750 4.531250,-6.515625 6.687500,-6.375000  L 6.687500,-8.718750  C 6.484375,-8.750000 6.296875,-8.765625 6.031250,-8.765625 " fill="#ffffff" /><path transform="translate(61.421875,0)" d=" M 5.875000,0.000000  L 8.687500,0.000000  C 8.562500,-0.937500 8.531250,-1.515625 8.531250,-2.156250  L 8.531250,-4.562500  C 8.531250,-5.093750 8.515625,-5.578125 8.484375,-6.015625  C 8.359375,-7.562500 7.421875,-8.765625 4.718750,-8.765625  C 2.562500,-8.765625 0.781250,-7.625000 0.765625,-5.625000  L 3.484375,-5.640625  C 3.531250,-6.390625 3.921875,-6.812500 4.593750,-6.812500  C 5.218750,-6.812500 5.562500,-6.437500 5.609375,-6.000000  C 5.640625,-5.734375 5.640625,-5.546875 5.640625,-5.375000  L 5.640625,-5.250000  L 5.109375,-5.250000  C 2.203125,-5.250000 0.484375,-4.125000 0.484375,-2.296875  C 0.484375,-0.656250 1.812500,0.218750 3.218750,0.218750  C 4.000000,0.218750 4.718750,0.031250 5.328125,-0.359375  L 5.687500,-1.250000  L 5.875000,0.000000  M 4.406250,-1.734375  C 3.828125,-1.734375 3.421875,-2.015625 3.421875,-2.531250  C 3.421875,-3.375000 4.359375,-3.718750 5.640625,-3.609375  L 5.640625,-3.062500  C 5.640625,-2.156250 4.968750,-1.734375 4.406250,-1.734375 " fill="#ffffff" /><path transform="translate(70.812500,0)" d=" M 4.875000,-8.765625  C 2.375000,-8.765625 0.390625,-7.125000 0.390625,-4.171875  C 0.390625,-1.359375 2.234375,0.218750 4.687500,0.218750  C 7.015625,0.218750 8.718750,-0.921875 9.046875,-3.140625  L 6.203125,-3.140625  C 6.046875,-2.203125 5.500000,-1.734375 4.843750,-1.734375  C 3.875000,-1.734375 3.328125,-2.531250 3.328125,-4.359375  C 3.328125,-6.000000 3.859375,-6.812500 4.812500,-6.812500  C 5.531250,-6.812500 6.093750,-6.406250 6.218750,-5.281250  L 9.015625,-5.281250  C 8.921875,-7.203125 7.390625,-8.765625 4.875000,-8.765625 " fill="#ffffff" /><path transform="translate(80.203125,0)" d=" M 4.359375,-3.171875  L 6.640625,0.000000  L 10.171875,0.000000  L 6.515625,-4.625000  L 10.125000,-8.546875  L 6.750000,-8.546875  L 3.750000,-4.953125  L 3.750000,-11.765625  L 0.859375,-11.765625  L 0.859375,0.000000  L 3.750000,0.000000  L 3.750000,-2.500000  L 4.359375,-3.171875 " fill="#ffffff" /><path transform="translate(90.312500,0)" d=" M 9.234375,-4.390625  C 9.234375,-6.593750 7.796875,-8.765625 4.937500,-8.765625  C 2.093750,-8.765625 0.390625,-6.734375 0.390625,-4.234375  C 0.390625,-1.234375 2.343750,0.218750 4.781250,0.218750  C 6.968750,0.218750 8.578125,-0.859375 9.078125,-2.796875  L 6.234375,-2.796875  C 6.125000,-2.140625 5.625000,-1.734375 4.812500,-1.734375  C 4.000000,-1.734375 3.375000,-2.125000 3.234375,-3.546875  L 9.187500,-3.546875  C 9.218750,-3.843750 9.234375,-4.125000 9.234375,-4.390625  M 4.796875,-6.812500  C 5.562500,-6.812500 6.062500,-6.312500 6.218750,-5.312500  L 3.328125,-5.312500  C 3.515625,-6.375000 4.046875,-6.812500 4.796875,-6.812500 " fill="#ffffff" /><path transform="translate(99.921875,0)" d=" M 6.031250,-8.765625  C 5.484375,-8.765625 4.812500,-8.531250 4.359375,-8.015625  L 3.750000,-6.812500  L 3.750000,-8.546875  L 0.859375,-8.546875  L 0.859375,0.000000  L 3.750000,0.000000  L 3.750000,-3.140625  C 3.750000,-5.718750 4.531250,-6.515625 6.687500,-6.375000  L 6.687500,-8.718750  C 6.484375,-8.750000 6.296875,-8.765625 6.031250,-8.765625 " fill="#ffffff" /></g>
</svg>