<?xml version="1.0" encoding="UTF-8"?>
<svg xmlns:svg="http://www.w3.org/2000/svg" xmlns="http://www.w3.org/2000/svg" width="139.75" height="25" viewBox="0 0 139.75 25">
    <rect fill="#29B7A4" width="63.125" height="25" x="0" y="0" />
    <rect fill="#17685D" width="76.625" height="25" x="63.125" y="0" />
    <g transform="translate(6.25, 18.414062)"><path transform="translate(0.000000,0)" d=" M 2.500000,-11.765625  L 1.125000,-11.765625  L 1.125000,-2.390625  C 1.125000,-1.921875 1.125000,-1.546875 1.140625,-1.265625  C 1.187500,-0.187500 1.781250,0.062500 2.578125,0.062500  C 2.890625,0.062500 3.250000,0.046875 3.546875,0.000000  L 3.546875,-0.984375  C 2.796875,-0.906250 2.546875,-1.093750 2.515625,-1.625000  C 2.500000,-1.906250 2.500000,-2.171875 2.500000,-2.437500  L 2.500000,-11.765625 " fill="#ffffff" /><path transform="translate(3.953125,0)" d=" M 1.875000,-11.265625  C 1.375000,-11.265625 0.984375,-10.875000 0.984375,-10.390625  C 0.984375,-9.890625 1.375000,-9.500000 1.875000,-9.500000  C 2.375000,-9.500000 2.750000,-9.890625 2.750000,-10.390625  C 2.750000,-10.875000 2.375000,-11.265625 1.875000,-11.265625  M 2.562500,0.000000  L 2.562500,-8.484375  L 1.187500,-8.484375  L 1.187500,0.000000  L 2.562500,0.000000 " fill="#ffffff" /><path transform="translate(7.765625,0)" d=" M 4.468750,-8.703125  C 2.343750,-8.703125 0.484375,-7.093750 0.484375,-4.218750  C 0.484375,-1.125000 2.109375,0.218750 4.250000,0.218750  C 6.140625,0.218750 7.546875,-0.734375 7.968750,-2.703125  L 6.531250,-2.703125  C 6.234375,-1.468750 5.453125,-0.828125 4.343750,-0.828125  C 3.078125,-0.828125 1.984375,-1.859375 1.984375,-4.312500  C 1.984375,-6.609375 3.109375,-7.640625 4.437500,-7.640625  C 5.562500,-7.640625 6.296875,-6.984375 6.609375,-5.625000  L 8.046875,-5.625000  C 7.796875,-7.484375 6.500000,-8.703125 4.468750,-8.703125 " fill="#ffffff" /><path transform="translate(16.234375,0)" d=" M 8.140625,-4.484375  C 8.140625,-6.953125 6.843750,-8.703125 4.515625,-8.703125  C 2.187500,-8.703125 0.484375,-6.953125 0.484375,-4.203125  C 0.484375,-1.218750 2.125000,0.218750 4.343750,0.218750  C 6.078125,0.218750 7.703125,-0.687500 8.031250,-2.734375  L 6.593750,-2.734375  C 6.406250,-1.515625 5.500000,-0.828125 4.406250,-0.828125  C 3.156250,-0.828125 2.093750,-1.578125 1.968750,-3.828125  L 8.109375,-3.828125  C 8.140625,-4.125000 8.140625,-4.359375 8.140625,-4.484375  M 4.484375,-7.640625  C 5.875000,-7.640625 6.625000,-6.640625 6.750000,-4.875000  L 1.984375,-4.875000  C 2.140625,-6.687500 3.140625,-7.640625 4.484375,-7.640625 " fill="#ffffff" /><path transform="translate(25.015625,0)" d=" M 8.312500,-6.218750  C 8.187500,-7.718750 7.156250,-8.703125 5.296875,-8.703125  C 4.437500,-8.703125 3.812500,-8.562500 3.093750,-8.000000  L 2.562500,-7.031250  L 2.562500,-8.484375  L 1.187500,-8.484375  L 1.187500,0.000000  L 2.562500,0.000000  L 2.562500,-3.734375  C 2.562500,-6.625000 3.687500,-7.609375 5.015625,-7.609375  C 6.312500,-7.609375 6.859375,-6.875000 6.937500,-5.890625  C 6.968750,-5.453125 6.968750,-5.109375 6.968750,-4.671875  L 6.968750,0.000000  L 8.359375,0.000000  L 8.359375,-4.765625  C 8.359375,-5.453125 8.359375,-5.796875 8.312500,-6.218750 " fill="#ffffff" /><path transform="translate(34.500000,0)" d=" M 3.640625,-8.703125  C 1.906250,-8.703125 0.718750,-7.781250 0.718750,-6.218750  C 0.718750,-4.734375 1.937500,-4.109375 3.453125,-3.703125  C 4.875000,-3.312500 5.453125,-2.875000 5.453125,-2.062500  C 5.453125,-1.250000 4.718750,-0.828125 3.812500,-0.828125  C 2.828125,-0.828125 2.046875,-1.265625 1.828125,-2.500000  L 0.390625,-2.500000  C 0.640625,-0.578125 1.968750,0.218750 3.718750,0.218750  C 5.500000,0.218750 6.859375,-0.578125 6.859375,-2.171875  C 6.859375,-3.609375 5.937500,-4.390625 3.984375,-4.890625  C 2.828125,-5.203125 2.125000,-5.531250 2.125000,-6.390625  C 2.125000,-7.125000 2.578125,-7.640625 3.531250,-7.640625  C 4.531250,-7.640625 5.140625,-7.062500 5.328125,-6.062500  L 6.765625,-6.062500  C 6.593750,-7.609375 5.546875,-8.703125 3.640625,-8.703125 " fill="#ffffff" /><path transform="translate(41.843750,0)" d=" M 8.140625,-4.484375  C 8.140625,-6.953125 6.843750,-8.703125 4.515625,-8.703125  C 2.187500,-8.703125 0.484375,-6.953125 0.484375,-4.203125  C 0.484375,-1.218750 2.125000,0.218750 4.343750,0.218750  C 6.078125,0.218750 7.703125,-0.687500 8.031250,-2.734375  L 6.593750,-2.734375  C 6.406250,-1.515625 5.500000,-0.828125 4.406250,-0.828125  C 3.156250,-0.828125 2.093750,-1.578125 1.968750,-3.828125  L 8.109375,-3.828125  C 8.140625,-4.125000 8.140625,-4.359375 8.140625,-4.484375  M 4.484375,-7.640625  C 5.875000,-7.640625 6.625000,-6.640625 6.750000,-4.875000  L 1.984375,-4.875000  C 2.140625,-6.687500 3.140625,-7.640625 4.484375,-7.640625 " fill="#ffffff" /></g>
    <g transform="translate(69.375, 18.414062)"><path transform="translate(0.000000,0)" d=" M 7.484375,-2.859375  L 8.421875,0.000000  L 11.546875,0.000000  L 7.562500,-11.046875  L 4.046875,-11.046875  L 0.062500,0.000000  L 3.125000,0.000000  L 4.046875,-2.859375  L 7.484375,-2.859375  M 5.781250,-8.500000  L 6.796875,-5.109375  L 4.750000,-5.109375  L 5.781250,-8.500000 " fill="#ffffff" /><path transform="translate(11.312500,0)" d=" M 6.546875,-5.890625  L 6.546875,-3.640625  L 8.687500,-3.640625  C 8.281250,-2.437500 7.546875,-1.890625 6.437500,-1.890625  C 5.078125,-1.890625 3.875000,-2.828125 3.875000,-5.609375  C 3.875000,-8.000000 5.046875,-9.156250 6.453125,-9.156250  C 7.609375,-9.156250 8.343750,-8.593750 8.578125,-7.406250  L 8.609375,-7.250000  L 11.484375,-7.250000  L 11.468750,-7.406250  C 11.250000,-9.578125 9.625000,-11.265625 6.484375,-11.265625  C 3.453125,-11.265625 0.859375,-9.281250 0.859375,-5.437500  C 0.859375,-1.734375 2.921875,0.218750 5.875000,0.218750  C 7.046875,0.218750 7.796875,0.046875 8.421875,-0.484375  L 8.890625,-1.703125  L 9.171875,0.000000  L 11.406250,0.000000  L 11.406250,-5.890625  L 6.546875,-5.890625 " fill="#ffffff" /><path transform="translate(23.453125,0)" d=" M 7.171875,-10.953125  C 6.578125,-11.031250 6.125000,-11.046875 5.437500,-11.046875  L 1.281250,-11.046875  L 1.281250,0.000000  L 4.156250,0.000000  L 4.156250,-3.875000  L 5.437500,-3.875000  C 6.125000,-3.875000 6.578125,-3.890625 7.171875,-3.953125  C 8.765625,-4.140625 10.218750,-5.281250 10.218750,-7.453125  C 10.218750,-9.625000 8.765625,-10.765625 7.171875,-10.953125  M 6.046875,-6.125000  C 5.843750,-6.109375 5.578125,-6.109375 5.281250,-6.109375  L 4.156250,-6.109375  L 4.156250,-8.796875  L 5.281250,-8.796875  C 5.578125,-8.796875 5.843750,-8.796875 6.046875,-8.781250  C 6.781250,-8.718750 7.218750,-8.281250 7.218750,-7.453125  C 7.218750,-6.625000 6.781250,-6.187500 6.046875,-6.125000 " fill="#ffffff" /><path transform="translate(33.750000,0)" d=" M 9.750000,-2.437500  L 4.156250,-2.437500  L 4.156250,-11.046875  L 1.281250,-11.046875  L 1.281250,0.000000  L 9.750000,0.000000  L 9.750000,-2.437500 " fill="#ffffff" /><path transform="translate(43.796875,0)" d=" M 9.859375,-8.546875  L 6.703125,-8.546875  L 4.953125,-2.281250  L 3.203125,-8.546875  L 0.000000,-8.546875  L 3.375000,0.000000  L 6.484375,0.000000  L 9.859375,-8.546875 " fill="#ffffff" /><path transform="translate(53.531250,0)" d=" M 7.359375,-5.812500  C 8.796875,-6.156250 9.453125,-7.031250 9.453125,-8.312500  C 9.453125,-9.890625 8.203125,-11.265625 5.500000,-11.265625  C 2.640625,-11.265625 1.265625,-9.593750 1.078125,-7.750000  L 1.062500,-7.578125  L 3.937500,-7.578125  L 3.953125,-7.750000  C 4.015625,-8.468750 4.375000,-9.156250 5.218750,-9.156250  C 6.015625,-9.156250 6.453125,-8.703125 6.453125,-7.984375  C 6.453125,-7.234375 5.921875,-6.656250 4.859375,-6.578125  L 4.437500,-6.546875  L 4.437500,-4.687500  L 4.859375,-4.671875  C 6.015625,-4.625000 6.703125,-4.140625 6.703125,-3.203125  C 6.703125,-2.453125 6.078125,-1.890625 5.093750,-1.890625  C 4.140625,-1.890625 3.593750,-2.578125 3.437500,-3.343750  L 3.406250,-3.500000  L 0.531250,-3.500000  L 0.546875,-3.343750  C 0.765625,-1.140625 2.406250,0.218750 5.203125,0.218750  C 7.984375,0.218750 9.718750,-1.171875 9.718750,-3.281250  C 9.718750,-4.703125 8.921875,-5.500000 7.359375,-5.812500 " fill="#ffffff" /></g>
</svg>